<svg id="e3f2c0a1-6627-4452-8860-f2f68511a70d" data-name="Layer 1" xmlns="http://www.w3.org/2000/svg" viewBox="0 0 127.10933 150">
  <defs>
    <style>
      .b28eae45-5317-482b-aa39-a6ef7c5148c1 {
        fill: #fff;
      }

      .e43c3f9b-6663-4119-93f8-b3b6a3fc2fa1 {
        fill: none;
      }
    </style>
  </defs>
  <title>Add_New_Lead_Simple</title>
  <g>
    <path class="b28eae45-5317-482b-aa39-a6ef7c5148c1" d="M79.18663,107.32312c.18852,3.35019.18762,9.10084.1857,19.215-.002,10.5682-.08808,21.2378-.08911,21.34432a3.11742,3.11742,0,0,1-.45867,1.58739l54.43979-25.1784V85.016Z" transform="translate(-12.58185 -0.20895)"/>
    <path class="b28eae45-5317-482b-aa39-a6ef7c5148c1" d="M87.70129,49.96544a15.67416,15.67416,0,0,1-22.59806.57018c-5.761,2.24285-10.1676,8.30527-13.23938,14.20346l23.96538,8.77666,25.90443-8.63466C98.55864,58.64563,93.89561,52.08353,87.70129,49.96544Z" transform="translate(-12.58185 -0.20895)"/>
    <path class="b28eae45-5317-482b-aa39-a6ef7c5148c1" d="M49.22344,70.45991a72.1571,72.1571,0,0,0-2.722,7.8168L41.85982,66.137l-9.99731,4.28463C34.51333,60.516,39.72417,54.26894,45.09012,50.328a62.64707,62.64707,0,0,1-22.89253-4.21454L12.58185,50.784V78.27671L72.63278,101.6864V79.04675L49.347,70.51989C49.303,70.50376,49.26621,70.47774,49.22344,70.45991Z" transform="translate(-12.58185 -0.20895)"/>
    <path class="b28eae45-5317-482b-aa39-a6ef7c5148c1" d="M126.40147,45.34728a54.38293,54.38293,0,0,1-19.5275,3.65858c5.8355,3.86017,11.73024,10.306,14.60774,21.05872L111.48433,65.78,106.8427,77.9197a70.86536,70.86536,0,0,0-2.50078-7.27536L78.92578,79.11627v22.51367l60.7654-24.78142V50.784Z" transform="translate(-12.58185 -0.20895)"/>
    <g>
      <path class="b28eae45-5317-482b-aa39-a6ef7c5148c1" d="M81.6652,25.89087S96.83634-13.55411,115.716,5.32554" transform="translate(-12.58185 -0.20895)"/>
      <path class="b28eae45-5317-482b-aa39-a6ef7c5148c1" d="M69.90548,26.08514S54.73434-13.35984,35.85469,5.51981" transform="translate(-12.58185 -0.20895)"/>
      <path class="b28eae45-5317-482b-aa39-a6ef7c5148c1" d="M120.55741,40.80524l2.28543.935a27.91123,27.91123,0,0,0,6.06156-3.181c2.6971-19.21677-13.14834-33.37649-13.14834-33.37649C93.50506,12.26253,85.75091,28.108,85.75091,28.108l4.71991,15.84541a70.26678,70.26678,0,0,0,13.93355,1.24136,34.51575,34.51575,0,0,0-9.30864-4.29757Z" transform="translate(-12.58185 -0.20895)"/>
      <path class="b28eae45-5317-482b-aa39-a6ef7c5148c1" d="M57.396,41.03322a34.356,34.356,0,0,0-11.32989,5.40991,40.05746,40.05746,0,0,0,14.39954-2.8269L66.53414,28.108S52.03725,8.554,35.85471,5.51982c0,0-14.834,14.15972-13.48548,36.07359,0,0,.75025.35463,2.08107.87022l2.72025-1.32128Z" transform="translate(-12.58185 -0.20895)"/>
      <path class="b28eae45-5317-482b-aa39-a6ef7c5148c1" d="M46.06613,46.44313A34.356,34.356,0,0,1,57.396,41.03322l-30.22547.10913L24.4503,42.46363A59.15322,59.15322,0,0,0,46.06613,46.44313Z" transform="translate(-12.58185 -0.20895)"/>
      <path class="b28eae45-5317-482b-aa39-a6ef7c5148c1" d="M120.55741,40.80524l-25.46168.09192a34.51575,34.51575,0,0,1,9.30864,4.29757,51.34976,51.34976,0,0,0,18.43847-3.45454Z" transform="translate(-12.58185 -0.20895)"/>
    </g>
    <path class="e43c3f9b-6663-4119-93f8-b3b6a3fc2fa1" d="M18.65165,121.04623a6.31241,6.31241,0,0,0,2.27344,12.2024h10.4384V143.687a6.31552,6.31552,0,1,0,12.631,0v-7.54777L18.65165,124.64842Z" transform="translate(-12.58185 -0.20895)"/>
    <path class="b28eae45-5317-482b-aa39-a6ef7c5148c1" d="M68.82276,126.9331a30.9905,30.9905,0,0,1-5.6626,17.89617l10.30337,4.6717a3.12,3.12,0,0,1-.47328-1.66978c.10947-13.34558.16133-34.381-.10216-40.52106L50.4508,98.53033A31.14214,31.14214,0,0,1,68.82276,126.9331Z" transform="translate(-12.58185 -0.20895)"/>
    <path class="b28eae45-5317-482b-aa39-a6ef7c5148c1" d="M47.56191,97.3999,18.65165,86.08718v16.19863A31.11763,31.11763,0,0,1,47.56191,97.3999Z" transform="translate(-12.58185 -0.20895)"/>
    <path class="b28eae45-5317-482b-aa39-a6ef7c5148c1" d="M47.56191,97.3999l2.88889,1.13043A30.9236,30.9236,0,0,0,47.56191,97.3999Z" transform="translate(-12.58185 -0.20895)"/>
    <g>
      <path class="b28eae45-5317-482b-aa39-a6ef7c5148c1" d="M42.399,133.81349v5.641a4.72,4.72,0,1,1-9.44,0v-7.80132H25.15767a4.71769,4.71769,0,0,1-1.69909-9.11968V108.51252a23.272,23.272,0,1,0,33.26422,31.7956Z" transform="translate(-12.58185 -0.20895)"/>
      <path class="b28eae45-5317-482b-aa39-a6ef7c5148c1" d="M25.15767,122.21311H32.959v-7.80133a4.72,4.72,0,1,1,9.44,0v7.80133h7.80135a4.72,4.72,0,0,1,0,9.44H42.399v2.16036l14.32378,6.49463a23.26645,23.26645,0,0,0-9.49857-34.60232l-2.15906-.84485a23.25635,23.25635,0,0,0-21.60659,3.65157v14.02093A4.69987,4.69987,0,0,1,25.15767,122.21311Z" transform="translate(-12.58185 -0.20895)"/>
    </g>
  </g>
</svg>
