<svg id="f780493e-e10d-4da3-9c54-c3d7bd5ffced" data-name="Layer 1" xmlns="http://www.w3.org/2000/svg" viewBox="0 0 998.97722 177.36359">
  <defs>
    <style>
      .e1d6dd8b-4d29-4ee1-ab17-2079408ed16f {
        fill: #c5cbd8;
      }

      .addfff06-4d1d-4e11-9c07-1e7d850c2876 {
        fill: #4c5d72;
      }

      .e31b6135-c967-484e-b08e-c957b07bea86 {
        fill: #982062;
      }
    </style>
  </defs>
  <title>PartnerApp logo</title>
  <g>
    <g>
      <path class="e1d6dd8b-4d29-4ee1-ab17-2079408ed16f" d="M135.019,179.41444l43.90964-44.3855.42678-62.3104S177.22152,65.89,167.83228,75.706s-11.94994,32.43556-10.66959,40.97123l-32.67883,14.9816s33.7056-18.18648,22.00924-32.05295L97.413,124.35935l-7.25532,44.81228,1.70713,10.24281Z" transform="translate(-0.6499 -2.05085)"/>
      <path class="addfff06-4d1d-4e11-9c07-1e7d850c2876" d="M44.98633,179.41444,1.07668,135.02894.6499,72.71854S2.78382,65.89,12.17306,75.706,24.123,108.14158,22.84265,116.67725l32.67883,14.9816S21.81588,113.47237,33.51224,99.6059l49.08011,24.75345,7.25533,44.81228-1.70714,10.24281Z" transform="translate(-0.6499 -2.05085)"/>
    </g>
    <path class="e31b6135-c967-484e-b08e-c957b07bea86" d="M50.59935,44.8201l.42652,59.19062,77.78267-.0884.59745-58.923L89.82772,2.05085ZM95.829,75.6521l.02614-8.43533,8.43528.02613-.02613,8.43528ZM82.65233,56.145l-.02614,8.43533-8.43528-.02614.02609-8.43528Zm13.21086,8.47632.02614-8.43533,8.43528.02613-.02614,8.43533ZM71.62155,56.11079l-.02614,8.43533L63.16008,64.52l.02613-8.43528ZM63.15206,67.11548l8.43533.02614L71.56125,75.577l-8.43533-.02614ZM74.15675,75.585l.02609-8.43533,8.43533.02614L82.592,75.61111Zm32.70306.10128.02614-8.43533,8.43533.02614-.02613,8.43528Zm8.46949-11.00469-8.43533-.02614.02614-8.43533,8.43533.02614Z" transform="translate(-0.6499 -2.05085)"/>
  </g>
  <g>
    <path class="addfff06-4d1d-4e11-9c07-1e7d850c2876" d="M288.90906,62.78393c0,20.11875-14.58138,32.27021-38.61512,32.27021H224.91065V124.8926h-9.99071V30.38h35.374C274.32768,30.38,288.90906,42.5315,288.90906,62.78393Zm-9.99071,0c0-15.12157-9.99254-23.76273-28.89359-23.76273H224.91065V86.27748h25.11411C268.92581,86.27748,278.91835,77.63632,278.91835,62.78393Z" transform="translate(-0.6499 -2.05085)"/>
    <path class="addfff06-4d1d-4e11-9c07-1e7d850c2876" d="M361.404,80.87744V124.8926h-9.18135V113.82151c-4.31966,7.28978-12.69164,11.74678-24.43842,11.74678-16.06644,0-25.92347-8.372-25.92347-20.659,0-10.93557,7.02243-20.11692,27.40853-20.11692h22.54868V80.47093c0-12.15146-6.88509-18.76738-20.11693-18.76738-9.18134,0-17.8225,3.24112-23.62905,8.372l-4.31966-7.1561c7.1561-6.07573,17.687-9.586,28.89358-9.586C351.00857,53.3334,361.404,62.51475,361.404,80.87744Zm-9.586,22.68235V91.94852H329.54027c-13.772,0-18.22719,5.4-18.22719,12.69165,0,8.23647,6.61592,13.36733,17.95618,13.36733C340.07116,118.0075,348.03846,112.87664,351.81794,103.55979Z" transform="translate(-0.6499 -2.05085)"/>
    <path class="addfff06-4d1d-4e11-9c07-1e7d850c2876" d="M423.2343,53.3334v9.315c-.80936,0-1.62056-.13367-2.29442-.13367-14.85239,0-23.89823,9.45052-23.89823,26.19265v36.1852h-9.586v-71.019H396.637V67.77928C401.09213,58.32876,410.138,53.3334,423.2343,53.3334Z" transform="translate(-0.6499 -2.05085)"/>
    <path class="addfff06-4d1d-4e11-9c07-1e7d850c2876" d="M481.016,120.57293c-3.77947,3.3748-9.45052,4.99536-14.98606,4.99536-13.36734,0-20.79262-7.56079-20.79262-20.659V61.97456H432.54383v-8.101H445.2373V38.34551h9.586V53.87359h21.602v8.101h-21.602v42.3946c0,8.372,4.31966,12.96265,12.28513,12.96265a15.8684,15.8684,0,0,0,10.53273-3.6458Z" transform="translate(-0.6499 -2.05085)"/>
    <path class="addfff06-4d1d-4e11-9c07-1e7d850c2876" d="M563.77627,83.71205V124.8926h-9.586V84.65692c0-14.98607-7.83179-22.68236-21.3328-22.68236-15.25707,0-24.8431,9.45052-24.8431,25.65247V124.8926h-9.586v-71.019h9.18135V66.96992c5.13085-8.64116,14.71688-13.63652,27.00384-13.63652C551.89582,53.3334,563.77627,63.32411,563.77627,83.71205Z" transform="translate(-0.6499 -2.05085)"/>
    <path class="addfff06-4d1d-4e11-9c07-1e7d850c2876" d="M651.93293,92.3532H592.5252c1.08037,14.8524,12.42063,24.7076,27.94871,24.7076,8.64116,0,16.33745-3.10378,21.73749-9.315l5.40187,6.21124c-6.34674,7.56078-16.20378,11.61127-27.41037,11.61127-22.14216,0-37.26373-15.1234-37.26373-36.1852,0-21.06362,14.71689-36.04969,34.70014-36.04969,19.98142,0,34.42913,14.71689,34.42913,36.04969C652.06844,90.19246,651.93293,91.27283,651.93293,92.3532ZM592.5252,85.1971h50.36189c-1.21588-13.90752-11.34209-23.62722-25.24778-23.62722C603.86729,61.56988,593.74107,71.28958,592.5252,85.1971Z" transform="translate(-0.6499 -2.05085)"/>
    <path class="addfff06-4d1d-4e11-9c07-1e7d850c2876" d="M707.41653,53.3334v9.315c-.80937,0-1.62056-.13367-2.29442-.13367-14.85239,0-23.89823,9.45052-23.89823,26.19265v36.1852h-9.586v-71.019h9.18134V67.77928C685.27436,58.32876,694.3202,53.3334,707.41653,53.3334Z" transform="translate(-0.6499 -2.05085)"/>
    <path class="addfff06-4d1d-4e11-9c07-1e7d850c2876" d="M787.67062,104.64017H743.78914l-8.372,20.25243H713.004L755.13123,30.38h21.602l42.26092,94.51256H796.04077ZM780.7837,88.03354,765.79763,51.84835l-14.9879,36.18519Z" transform="translate(-0.6499 -2.05085)"/>
    <path class="addfff06-4d1d-4e11-9c07-1e7d850c2876" d="M906.4751,88.5719c0,22.81969-15.79726,37.40107-36.18519,37.40107-9.04584,0-16.47112-2.83644-21.873-8.77666v33.88894H827.35513V52.253h20.11692v8.37015c5.26636-6.34491,13.09816-9.45052,22.81786-9.45052C890.67784,51.17266,906.4751,65.754,906.4751,88.5719Zm-21.3328,0c0-12.55614-7.96547-20.11693-18.49636-20.11693-10.53273,0-18.4982,7.56079-18.4982,20.11693,0,12.558,7.96547,20.11875,18.4982,20.11875C877.17683,108.69065,885.1423,101.12987,885.1423,88.5719Z" transform="translate(-0.6499 -2.05085)"/>
    <path class="addfff06-4d1d-4e11-9c07-1e7d850c2876" d="M999.62712,88.5719c0,22.81969-15.79726,37.40107-36.1852,37.40107-9.04584,0-16.47112-2.83644-21.873-8.77666v33.88894h-21.0618V52.253h20.11693v8.37015c5.26636-6.34491,13.09815-9.45052,22.81785-9.45052C983.82986,51.17266,999.62712,65.754,999.62712,88.5719Zm-21.3328,0c0-12.55614-7.96547-20.11693-18.49637-20.11693-10.53273,0-18.49819,7.56079-18.49819,20.11693,0,12.558,7.96546,20.11875,18.49819,20.11875C970.32885,108.69065,978.29432,101.12987,978.29432,88.5719Z" transform="translate(-0.6499 -2.05085)"/>
  </g>
</svg>
