<svg xmlns="http://www.w3.org/2000/svg" viewBox="0 0 1280 640">
  <defs>
    <style>
      .b05361c3-0b88-435f-bb22-8342b5e834e6 {
        fill: #e46644;
      }

      .fa586e08-0283-4faa-a6ae-9e800d8a636a {
        fill: #cce5ea;
      }

      .bdf5b35b-8c95-424f-8af7-04495fc51179 {
        fill: #f7f7f7;
      }

      .b010a053-9e5e-4bfd-af70-00e0a45c10f0 {
        fill: #ececee;
      }

      .a40f956f-1b3f-4a74-80f0-6523dd309137 {
        fill: #522037;
      }

      .ed370281-744e-4f2f-ad09-735de338b470 {
        fill: #6d0025;
      }

      .e23080fd-b142-475c-8318-2f5d06c50287 {
        fill: #b5917f;
      }

      .aa0c4f53-4748-49e8-a028-13dedaa6675b {
        fill: #e4e6f3;
      }

      .ad0d34b9-77c0-4b54-887f-a39b55f6a633 {
        fill: #35435e;
      }

      .a596a10d-f654-4ce4-840e-f05377310d22 {
        fill: #252d42;
      }

      .adc8960b-ef7d-4ea2-b503-424764cd9992 {
        fill: #434c5d;
      }

      .b74ef7bc-2d0c-4b16-b617-af7298030b58 {
        fill: #fbc083;
      }

      .bee37396-6fdb-4497-8125-1bb91d4cbfde {
        fill: #c3d9e6;
      }

      .a7a7ed4e-88fc-473b-9e62-cb86258e39e7 {
        fill: #8d9eb2;
      }

      .feab7b9e-fb0a-4e11-bcc0-98587350ad4d {
        fill: #727a87;
      }

      .bb1285ab-0d09-4658-b89e-b06b79f248b4 {
        fill: #faf8f9;
      }

      .a770909b-eb33-41ec-8e28-bf891a3ae933 {
        fill: #f9aa74;
      }

      .ba7d4812-f3a1-43c6-92f7-a01db96af9e0 {
        fill: #699ebf;
      }

      .b47d518d-705d-4c23-86c0-0d7b13a1358d {
        fill: #e1baba;
      }

      .ee26a179-75d9-43a2-8042-265ad68fc787 {
        fill: #1d2635;
      }

      .bc9625fe-ad04-44ff-87af-8590ffa5b45d {
        fill: #2c3f50;
      }

      .f7402622-6c74-4c79-b9c7-2777588ab72c {
        fill: #283d50;
      }

      .b2b66694-19da-49b0-820c-7f476b89d5c6 {
        fill: #232b3e;
      }

      .f92b2ef5-8239-420d-8455-eb398eb9682c {
        fill: #a87660;
      }

      .bdc1d11d-d6bf-4339-ae4f-d404f60030f8 {
        fill: #020106;
      }

      .a7e424cd-7a87-4c3d-aea2-cc385e088f16 {
        fill: #fff;
      }

      .ebf70407-2936-4f42-a8f8-593e15a01bd8 {
        fill: #d0d3dd;
      }

      .bbe745e1-aff9-4431-af1d-3042c02b96f1 {
        fill: #2c3072;
      }

      .ff5c1231-037e-4d80-8061-03597087c7c3 {
        fill: #999;
      }

      .b43faeeb-c43d-4af6-bbd0-eec7a4d8784f {
        fill: #f2f2f2;
      }

      .fd1f8f7a-2b37-4af5-b301-b558ca42dbab {
        fill: #b9e4eb;
        opacity: 0.27;
      }

      .f8c04b9a-292e-4067-9c80-5882a1e89bb5 {
        fill: #a3dadb;
      }

      .b56836dc-01cd-4bed-b3c5-683230028bbc {
        fill: #5ea9a3;
      }

      .e8a666b6-d9bb-4588-b55d-4c6ee4307829, .f1c93cc3-a699-40fd-a615-ab28cb3e3cfa {
        fill: none;
        stroke-miterlimit: 10;
      }

      .f1c93cc3-a699-40fd-a615-ab28cb3e3cfa {
        stroke: #456d6c;
        stroke-width: 3.21676px;
      }

      .ffa2bad6-9d24-4429-af2a-bfd11dceec98 {
        fill: #ef5457;
      }

      .b788b5a6-0973-41d8-ac0b-49099e4cebdd {
        fill: #f7993b;
      }

      .e9d2d7c1-2109-4833-b43f-046cbd5899a4 {
        fill: #f16a6e;
      }

      .b7434a88-775b-40ba-89be-9e7073e991e5 {
        fill: #456d6c;
      }

      .e8a666b6-d9bb-4588-b55d-4c6ee4307829 {
        stroke: #f2f2f2;
      }
    </style>
  </defs>
  <title>Referral partner Illustration</title>
  <g id="fa9a51d4-f0c9-474d-967c-951236414c6c" data-name="Layer 2">
    <g>
      <path class="b05361c3-0b88-435f-bb22-8342b5e834e6" d="M63.36279,17.77051l-.01416-6.915.91162-.083s2.085-.189,5.981-.51562l.167,1.99316c-2.38867.2002-4.09521.34863-5.05566.43311l.01025,5.08349Z"/>
      <path class="b05361c3-0b88-435f-bb22-8342b5e834e6" d="M118.1958,638.60547q-6.31055,0-11.94678-.00879l.00293-2q5.62866.00879,11.94385.00879Zm11.94971-.00781-.002-2q5.762-.00586,11.95752-.02246l.00489,2Q135.91259,638.59131,130.14551,638.59766Zm-35.84375-.02735c-4.47168-.01367-8.46533-.02929-11.94776-.0459l.00977-2c3.48144.01661,7.47363.03223,11.94385.0459Zm59.77148-.0332-.00683-2q5.82714-.0205,11.96533-.05176l.00976,2Q159.90455,638.51611,154.07324,638.53711Zm23.93506-.11816-.01269-2q5.863-.03663,11.96289-.08106l.01464,2Q183.87428,638.3833,178.0083,638.419Zm23.92676-.17579-.0166-2q5.88646-.0498,11.95947-.10839l.01953,2Q207.82422,638.19336,201.93506,638.24316Zm23.92383-.23144-.02149-2q5.90259-.063,11.95752-.13672l.02442,2Q231.7644,637.94824,225.85889,638.01172Zm23.91894-.28613-.02637-2q5.91651-.07911,11.95655-.166l.02929,2Q255.69629,637.64746,249.77783,637.72559Zm23.918-.34766-.03125-2q5.926-.09375,11.95508-.19434l.0332,2Q279.62427,637.28468,273.6958,637.37793Zm23.91358-.40332-.03614-2q5.93336-.10694,11.95313-.22363l.03906,2Q303.54493,636.86816,297.60938,636.97461Zm23.91162-.46289-.04151-2q5.94067-.123,11.95264-.25488l.04394,2Q327.46362,636.38868,321.521,636.51172Zm23.90966-.52637-.04589-2q5.94579-.1377,11.95117-.28613l.04883,2Q351.37891,635.84717,345.43066,635.98535Zm23.90723-.58887-.05176-2q5.9502-.15526,11.94971-.32031l.05469,2Q375.29053,635.24169,369.33789,635.39648Zm23.90527-.65722-.05761-2q5.95458-.17286,11.94775-.35547l.06152,1.999Q399.20069,634.56739,393.24316,634.73926Zm23.90235-.72852-.06348-1.999q5.95826-.189,11.94629-.39063l.06738,1.99805Q423.106,633.81983,417.14551,634.01074Zm23.89941-.80176-.07031-1.998q5.96118-.20948,11.94531-.42969l.07324,1.99805Q447.00855,632.999,441.04492,633.209Zm23.89746-.87988-.07715-1.99805q5.96485-.23,11.94385-.4707l.08008,1.998Q470.90967,632.09863,464.94238,632.3291Zm23.89307-.96289-.084-1.99805q5.967-.25194,11.94141-.51367l.08789,1.998Q494.80566,631.11474,488.83545,631.36621Zm23.89062-1.05078-.09179-1.99805q5.98681-.27538,11.97412-.5625l.0957,1.99805Q518.71655,630.04,512.72607,630.31543ZM536.6626,629.167l-.09961-1.998q5.97144-.29883,11.93457-.61036l.10449,1.99805Q542.63721,628.86866,536.6626,629.167Zm23.86035-1.24707-.10938-1.99609q5.9568-.3252,11.89551-.66309l.11377,1.9961Q566.48218,627.59521,560.523,627.91992Zm23.83691-1.3584-.11816-1.99609q5.978-.35449,11.93018-.72363l.124,1.99609Q590.34131,626.207,584.35986,626.56152ZM608.229,625.082l-.1289-1.99609q5.981-.38672,11.92627-.78809l.13476,1.9961Q614.21314,624.6953,608.229,625.082Zm23.86231-1.61035-.14063-1.99414q5.98242-.42187,11.92139-.85938l.14648,1.99414Q638.07716,623.0503,632.09131,623.47168Zm23.854-1.75586-.15429-1.99414q5.98388-.46143,11.915-.93848l.16016,1.99414Q661.93359,621.25488,655.94531,621.71582Zm23.84082-1.92285-.168-1.99219q5.98683-.50391,11.90723-1.02539l.17578,1.99219Q685.77734,619.28905,679.78613,619.793Zm23.8252-2.09961-.1836-1.99219q5.98683-.55371,11.89844-1.125l.19336,1.99024Q709.60449,617.13916,703.61133,617.69336Zm23.81152-2.30957-.20312-1.99024q5.99121-.60937,11.88769-1.24023l.21289,1.98828Q733.41846,614.773,727.42285,615.38379Zm23.78906-2.54785-.22461-1.98731q5.99268-.67675,11.87208-1.375l.23632,1.98633Q757.21143,612.15869,751.21191,612.83594Zm23.76075-2.82617-.25-1.98438q5.99414-.75439,11.85254-1.5332l.26367,1.98242Q780.9751,609.25538,774.97266,610.00977Zm23.72265-3.16211-.27929-1.98047q5.9956-.84669,11.82519-1.72461l.29688,1.97851Q804.70068,605.99853,798.69531,606.84766Zm23.66992-3.56739-.31835-1.97461c3.98925-.6416,7.95507-1.30273,11.78808-1.96386l.33984,1.9707C830.335,601.97559,826.36133,602.6377,822.36523,603.28027Zm23.59571-4.08105-.36524-1.9668c4.01758-.748,7.96387-1.51367,11.72754-2.27441l.39649,1.96094C853.94531,597.68164,849.98926,598.44824,845.96094,599.19922Zm23.47949-4.75684-.43164-1.95312c3.99121-.88184,7.90625-1.79,11.63379-2.69922l.47461,1.94336C877.374,592.64551,873.44629,593.55762,869.44043,594.44238Zm23.28906-5.70117-.52734-1.92969c4.00683-1.09375,7.8623-2.21484,11.458-3.33007l.59179,1.91015C900.63477,586.51367,896.75781,587.64063,892.72949,588.74121Zm22.91309-7.16016-.68067-1.88085c3.96485-1.43457,7.6836-2.91114,11.05469-4.38965l.80274,1.832C923.4082,578.6377,919.64844,580.13184,915.64258,581.58105Zm21.9668-9.793-.98829-1.73829a63.48892,63.48892,0,0,0,9.65039-6.59765l1.29493,1.52539A65.54844,65.54844,0,0,1,937.60938,571.78809Zm17.62988-16.00684-1.7793-.91211a18.11632,18.11632,0,0,0,.76953-1.71387,44.78208,44.78208,0,0,0,2.53809-9.3623l1.97656.30273a46.738,46.738,0,0,1-2.64941,9.78223A20.16961,20.16961,0,0,1,955.23926,555.78125Zm1.584-23.583a43.00121,43.00121,0,0,0-3.20605-11.01269l1.832-.80274a44.97769,44.97769,0,0,1,3.35254,11.52637Zm-8.9834-21.0747a80.02314,80.02314,0,0,0-7.52832-8.99756l1.44141-1.38672a82.09587,82.09587,0,0,1,7.71582,9.22412Zm-16.18261-17.0376c-2.875-2.41309-6.03516-4.85059-9.39258-7.24561l1.16211-1.62793c3.39941,2.4253,6.60156,4.895,9.51562,7.34131Zm-19.28614-13.84278c-3.22558-2.01855-6.67382-4.05957-10.249-6.06591l.97852-1.74414c3.60351,2.022,7.0791,4.07959,10.33105,6.11474Zm-20.76074-11.69238c-3.415-1.74707-7.01758-3.51562-10.709-5.25732l.85351-1.8086c3.71,1.75049,7.332,3.52881,10.76563,5.28565Zm-21.57226-10.19971c-3.53907-1.55371-7.23633-3.12548-10.98926-4.67089l.76172-1.84961c3.7666,1.55175,7.47851,3.12939,11.03222,4.68945ZM847.959,449.24463c-3.61621-1.40479-7.376-2.82666-11.1748-4.22608l.69141-1.877c3.80957,1.40332,7.58105,2.82959,11.208,4.23877ZM825.54,440.97656c-3.69727-1.29638-7.5-2.60058-11.30469-3.87646l.63672-1.89649c3.8125,1.27881,7.624,2.58594,11.33008,3.88526Zm-22.6582-7.605q-5.67335-1.82373-11.40137-3.59424l.5918-1.91113q5.73486,1.77467,11.42089,3.60108ZM780.042,426.3042q-5.74658-1.71387-11.51074-3.373l.55273-1.92187q5.77149,1.6626,11.53028,3.37793Zm-23.02051-6.63574q-5.75829-1.6062-11.50195-3.16016l.52246-1.93066q5.748,1.55567,11.5166,3.16406Zm-23.05664-6.24268q-5.814-1.53-11.57519-3.00586l.49609-1.9375q5.76417,1.47731,11.58887,3.00879ZM710.794,407.48486q-5.855-1.46337-11.61231-2.8706l.47461-1.94287q5.75976,1.40771,11.62207,2.873Zm-23.24024-5.68359q-5.89746-1.41211-11.6416-2.76123l.457-1.94727q5.74512,1.35059,11.64941,2.76319Zm-23.29785-5.47852q-5.94726-1.37548-11.665-2.68017l.44531-1.9502q5.71582,1.30591,11.6709,2.68213ZM640.916,390.98926q-6.019-1.36232-11.68164-2.6377l.43945-1.95117q5.65722,1.27515,11.68359,2.63818ZM617.5459,385.7124q-6.15307-1.39233-11.69141-2.665l.44873-1.94922q5.52466,1.27222,11.68408,2.66358Zm-23.37842-5.40381c-4.62695-1.10937-8.44531-2.064-11.67236-2.91845l.51172-1.9336c3.2124.85059,7.01513,1.80127,11.62646,2.90674Zm-23.26855-6.46875a19.43676,19.43676,0,0,1-2.10254-.95654c-2.58545-1.41162-3.89649-3.41748-3.89649-5.96094a10.15076,10.15076,0,0,1,.73-3.55957l1.87012.708a8.19,8.19,0,0,0-.6001,2.85108c0,1.80615.90723,3.14257,2.85449,4.20605a17.5639,17.5639,0,0,0,1.88086.85254Zm3.02636-19.36132-1.5166-1.30372c2.15088-2.50146,4.85449-5.36621,8.26465-8.7583l1.41016,1.418C578.71045,349.18945,576.042,352.01709,573.92529,354.47852ZM590.6748,337.541l-1.375-1.45215q2.60449-2.46534,5.35352-5.0459l3.35693-3.15918,1.37207,1.45508L596.02344,332.5Q593.28419,335.07665,590.6748,337.541Zm17.38282-16.45752L606.669,319.644c3.12646-3.01709,5.90722-5.75879,8.50244-8.38183l1.42187,1.40625C613.9873,315.30273,611.19531,318.05566,608.05762,321.0835ZM624.88721,304l-1.47071-1.35547c2.82764-3.06836,5.47266-6.07764,7.8628-8.94482l1.53613,1.28027C630.40479,297.87256,627.7373,300.90771,624.88721,304Zm15.3208-18.50293-1.6211-1.1709c2.44239-3.37939,4.62793-6.71484,6.4961-9.91357l1.72656,1.00879C644.90918,278.67578,642.68748,282.06592,640.208,285.49707Zm11.999-20.87646-1.84961-.75977a58.99249,58.99249,0,0,0,3.41309-11.2041l1.96484.37793A61.07332,61.07332,0,0,1,652.207,264.62061Zm2.27051-23.55713a38.70931,38.70931,0,0,0-2.6377-11.29541l1.85743-.74024a40.67645,40.67645,0,0,1,2.77441,11.87842Zm-8.459-21.30811a46.41193,46.41193,0,0,0-8.397-7.99267l1.19727-1.60157a48.42287,48.42287,0,0,1,8.7583,8.34033ZM627.61426,205.6543a97.962,97.962,0,0,0-10.876-4.61182l.67481-1.88281a99.89984,99.89984,0,0,1,11.09863,4.70752Zm-22.21582-8.10254c-3.63672-.9585-7.53858-1.85059-11.59717-2.65088l.38672-1.96192c4.1001.80811,8.04346,1.70948,11.72021,2.6792Zm-23.3418-4.66211c-3.75391-.55469-7.73486-1.06494-11.83252-1.51611l.21875-1.98829c4.12256.45411,8.12842.96729,11.90576,1.52588Zm-23.71777-2.64356c-3.8042-.30615-7.814-.58154-11.91748-.81689l.11425-1.99707c4.11915.23682,8.14454.51269,11.96387.8208Zm-23.855-1.38964c-3.813-.14991-7.72022-.2754-11.94385-.38282l.05078-1.999c4.23291.10742,8.14941.23291,11.97217.38379Zm-23.90284-.62452q-6.04541-.093-11.96484-.14453l.01856-2q5.91576.05566,11.97753.14453Zm-23.935-.24072c-4.08545-.02978-8.08594-.06055-11.978-.102l.02148-2c3.89014.0415,7.8877.07227,11.97119.102Zm-23.96338-.28271c-4.48389-.09229-8.40772-.21143-11.99463-.3628l.084-1.998c3.57276.15088,7.48242.269,11.95166.36132ZM438.688,186.61084a119.78957,119.78957,0,0,1-11.97168-1.5415l.37207-1.96485a117.83347,117.83347,0,0,0,11.77,1.51367Zm-23.53467-5.59912a8.62121,8.62121,0,0,1-2.52-2.61768,5.42914,5.42914,0,0,1-.77881-2.77929c0-1.89649.97608-3.86573,2.98389-6.02l1.46289,1.36328c-1.62354,1.74267-2.44678,3.30908-2.44678,4.65674a3.41107,3.41107,0,0,0,.50244,1.76513,6.66694,6.66694,0,0,0,1.94776,1.99707Zm10.42188-17.11865-1.05665-1.69825c2.8628-1.78125,6.28711-3.72656,10.46875-5.94726l.938,1.7666C431.78418,160.21289,428.39893,162.13623,425.5752,163.89307Zm20.98486-11.3252-.89258-1.79c3.43652-1.71387,7.03662-3.47851,10.74854-5.29492l.8789,1.79688C453.58789,149.09326,449.99268,150.856,446.56006,152.56787Zm21.48779-10.56348-.88525-1.79345c4.00049-1.97412,7.49951-3.7251,10.69678-5.35156l.90673,1.78271C475.56152,138.27246,472.05566,140.02637,468.04785,142.00439Zm21.355-10.89843-.94238-1.76367c3.688-1.96973,7.20312-3.90967,10.44726-5.76563l.99317,1.73633C496.63965,127.17822,493.10742,129.12744,489.40283,131.106ZM510.208,119.15039l-1.0625-1.69434c3.53857-2.21923,6.875-4.4375,9.917-6.59375l1.15626,1.63184C517.14648,114.67188,513.77832,116.91162,510.208,119.15039Zm19.5625-13.98779-1.28516-1.53223a98.31,98.31,0,0,0,8.61963-8.0957l1.46094,1.36572A100.25439,100.25439,0,0,1,529.77051,105.1626Zm16.25-17.80518L544.3252,86.2959a38.33117,38.33117,0,0,0,4.69726-10.55176l1.93457.50684A40.31478,40.31478,0,0,1,546.02051,87.35742Zm3.7041-22.99072a33.60213,33.60213,0,0,0-3.63721-10.95117l1.77149-.92871a35.60545,35.60545,0,0,1,3.84716,11.60449ZM539.43506,43.80029l-.48486-.55761a46.4048,46.4048,0,0,0-8.19385-7.21l1.15136-1.63574a48.43361,48.43361,0,0,1,8.54542,7.52588l.49951.5752Zm-18.833-13.729c-3.28711-1.63184-6.94385-3.21484-10.86767-4.70508l.71-1.87012c3.98486,1.51368,7.70166,3.12305,11.04736,4.78418Zm-22.11719-8.521c-3.59912-1.09424-7.459-2.15722-11.47119-3.15966l.48438-1.94043c4.04492,1.01074,7.937,2.08251,11.56884,3.18652Zm-23.08252-5.81445c-3.73242-.78076-7.67089-1.53857-11.70605-2.25244l.34863-1.96973c4.05567.71778,8.01416,1.47949,11.7666,2.26416Zm-23.47558-4.17578c-3.81934-.5752-7.79492-1.12988-11.81592-1.64844l.25586-1.9834c4.03516.52051,8.0249,1.07666,11.85791,1.6543Zm-369.6211-.27051-.15527-1.99414C85.669,9.021,89.65771,8.71729,94.0752,8.39307l.14648,1.99463C89.80762,10.71143,85.82129,11.01514,82.30566,11.28955Zm23.8335-1.75293-.13867-1.99512q5.65283-.39185,11.92822-.8042l.13086,1.9961Q111.79664,9.14356,106.13916,9.53662ZM428.26221,8.49707c-3.86084-.42578-7.856-.8335-11.874-1.21191l.1875-1.99121c4.02881.37939,8.03418.78808,11.90528,1.21484Zm-298.2793-.52246-.12305-1.99609q5.77662-.356,11.9336-.71387l.11523,1.99707Q135.76074,7.617,129.98291,7.97461ZM153.8374,6.59229l-.1084-1.99708q5.84034-.31639,11.93848-.62451l.10059,1.99756Q159.678,6.27515,153.8374,6.59229Zm250.65821-.34375c-3.90137-.31153-7.90723-.60694-11.90674-.87793l.13476-1.99512c4.00782.271,8.022.56689,11.93116.87988Zm-226.79493-.8584-.09277-1.998q5.87988-.27319,11.94238-.53223l.085,1.99805Q183.57959,5.11645,177.70068,5.39014ZM380.67139,4.6333q-5.92164-.33471-11.92627-.6123l.09277-1.998q6.01318.27833,11.94629.61328ZM201.57178,4.37305l-.07715-1.99854q5.90772-.22778,11.94678-.43506l.06836,1.999Q207.47754,4.145,201.57178,4.37305Zm23.87842-.81836-.06006-1.999q5.92894-.178,11.9497-.33105l.05079,1.999Q231.37671,3.376,225.4502,3.55469ZM356.813,3.52393q-5.94068-.22121-11.93653-.39307l.05762-1.999q6.00147.17211,11.95313.39306ZM249.332,2.94727,249.291.94775Q255.23755.82471,261.24414.73l.03125,2Q255.27612,2.82447,249.332,2.94727ZM332.93652,2.835q-5.967-.126-11.96-.208l.02735-2q5.99779.08277,11.97461.208Zm-59.73388-.26221-.02051-2Q279.13818.5105,285.12646.48047l.00977,2Q279.156,2.50976,273.20264,2.57275ZM309.023,2.50293q-5.97363-.04248-11.94629-.04736l.002-2q5.97657.00512,11.958.04736Z"/>
      <path class="b05361c3-0b88-435f-bb22-8342b5e834e6" d="M71.6333,638.46289c-3.93262-.02734-5.99805-.04687-5.99805-.04687l-.98877-.00977-.01416-6.98828,2-.00391.01026,5.01074c.97314.00782,2.65576.02149,5.00439.03809Z"/>
      <path class="b05361c3-0b88-435f-bb22-8342b5e834e6" d="M64.60742,619.38574l-.0249-12.03222,2-.00391.0249,12.03223Zm-.0498-24.06445-.02491-12.03223,2-.0039.02491,12.03222Zm-.04981-24.06445-.0249-12.03223,2-.00391.0249,12.03223Zm-.0498-24.06446-.0249-12.0332,2-.00391.0249,12.03321ZM64.4082,523.127l-.0249-12.03174,2-.0039.0249,12.03174Zm-.0498-24.06445-.0249-12.03223,2-.0039.0249,12.03222Zm-.04981-24.06445-.0249-12.03223,2-.00391.0249,12.03223Zm-.0498-24.06446-.0249-12.03222,2-.00391.0249,12.03223ZM64.209,426.86914l-.02441-12.03271,2-.00391.02441,12.03271Zm-.04931-24.06494-.0249-12.03223,2-.0039.0249,12.03222Zm-.04981-24.06445-.0249-12.03223,2-.00391.0249,12.03223Zm-.0498-24.06446-.0249-12.03271,2-.00391.0249,12.03272Zm-.04981-24.06494-.0249-12.03222,2-.00391.0249,12.03223Zm-.0498-24.06445-.0249-12.03223,2-.0039.0249,12.03222Zm-.04981-24.06445-.0249-12.03272,2-.00391.0249,12.03272Zm-.0498-24.065-.0249-12.03222,2-.00391.0249,12.03223Zm-.0498-24.06445-.02491-12.03223,2-.0039.02491,12.03222Zm-.04981-24.06494-.0249-12.03223,2-.0039.0249,12.03222Zm-.0498-24.06445-.02491-12.03223,2-.00391.02491,12.03223Zm-.04981-24.06446-.0249-12.03222,2-.00391.0249,12.03223Zm-.0498-24.06494L63.58691,126.061l2-.00391.02491,12.03223ZM63.562,114.02881l-.0249-12.03223,2-.0039.0249,12.03222Zm-.0498-24.06445L63.4873,77.93164l2-.00391.02491,12.03272ZM63.4624,65.89941l-.0249-12.03222,2-.00391.0249,12.03223ZM63.4126,41.835l-.0249-12.03223,2-.0039.0249,12.03222Z"/>
    </g>
    <path class="fa586e08-0283-4faa-a6ae-9e800d8a636a" d="M-.0038-1.0718s415.35539-8.19149,475.41174,60.234S304.566,178.33049,317.8875,200.95913s237.1755-19.19359,268.74917,41.02711-96.10855,135.432-69.55536,149.921,410.59881,70.40986,373.78723,178.18964C860.972,657.63033,1.31988,638.9282,1.31988,638.9282Z"/>
    <g>
      <polygon class="bdf5b35b-8c95-424f-8af7-04495fc51179" points="1280 16.083 1090.931 66.743 1090.931 3.418 1063.791 3.418 1063.791 71.266 961.567 100.214 961.567 3.418 945.284 3.418 945.284 103.833 865.676 129.163 865.676 3.418 847.583 3.418 847.583 133.686 795.114 149.969 795.114 3.418 775.212 3.418 775.212 415.933 798.732 422.266 798.732 159.921 850.297 145.446 850.297 429.503 866.58 429.503 866.58 140.923 945.284 117.403 945.284 444.882 964.281 444.882 964.281 111.975 1063.791 85.74 1063.791 455.737 1088.217 455.737 1088.217 79.408 1280 29.653 1280 16.083"/>
      <polygon class="b010a053-9e5e-4bfd-af70-00e0a45c10f0" points="1109.928 3.418 1109.928 61.653 1090.931 66.743 1090.931 3.418 1109.928 3.418"/>
      <polygon class="b010a053-9e5e-4bfd-af70-00e0a45c10f0" points="1109.928 73.775 1109.928 455.737 1088.217 455.737 1088.217 79.408 1109.928 73.775"/>
      <polygon class="b010a053-9e5e-4bfd-af70-00e0a45c10f0" points="972.117 109.909 972.117 436.74 964.281 436.74 964.281 111.975 972.117 109.909"/>
      <polygon class="b010a053-9e5e-4bfd-af70-00e0a45c10f0" points="972.117 97.227 972.117 3.418 961.567 3.418 961.567 100.214 972.117 97.227"/>
      <polygon class="b010a053-9e5e-4bfd-af70-00e0a45c10f0" points="877.436 3.418 877.436 126.407 865.676 129.163 865.676 3.418 877.436 3.418"/>
      <polygon class="b010a053-9e5e-4bfd-af70-00e0a45c10f0" points="877.436 137.679 877.436 415.933 866.58 415.933 866.58 140.923 877.436 137.679"/>
      <polygon class="b010a053-9e5e-4bfd-af70-00e0a45c10f0" points="803.252 147.444 803.252 3.418 795.114 3.418 795.114 149.969 803.252 147.444"/>
      <polygon class="b010a053-9e5e-4bfd-af70-00e0a45c10f0" points="803.252 158.652 803.252 415.933 797.826 421.359 797.826 159.921 803.252 158.652"/>
    </g>
    <polygon class="bdf5b35b-8c95-424f-8af7-04495fc51179" points="1280 464.599 489.344 361.859 1.324 640 1280 640.931 1280 464.599"/>
    <path class="a40f956f-1b3f-4a74-80f0-6523dd309137" d="M816.70957,627.42506l29.2266-12.575a13.08565,13.08565,0,0,0,7.11551-14.56046c-2.00913-10.52369,0-44.70652,0-44.70652l-40.34131,3.38126Z"/>
    <path class="a40f956f-1b3f-4a74-80f0-6523dd309137" d="M855.70507,497.43187s22.912-135.93693,8.10344-160.695-108.15712-22.8314-108.15712-22.8314Z"/>
    <path class="ed370281-744e-4f2f-ad09-735de338b470" d="M750.44681,313.90543s67.54307,8.21514,83.04813,11.05911,22.26029,17.30635,18.56889,79.03694-4.08511,114.67966-4.08511,114.67966L721.12309,484.07661Z"/>
    <path class="e23080fd-b142-475c-8318-2f5d06c50287" d="M618.5521,222.5062s30.19845,61.11823-11.09271,117.27227c0,0,60.43494-5.63267,76.657-14.81393S720.95411,190.73792,618.5521,222.5062Z"/>
    <path class="aa0c4f53-4748-49e8-a028-13dedaa6675b" d="M387.54453,475.86388s62.2339-115.35717,41.45871-136.08541c0,0-29.66134-29.21683-61.04207-1.54061S387.54453,475.86388,387.54453,475.86388Z"/>
    <g>
      <path class="ad0d34b9-77c0-4b54-887f-a39b55f6a633" d="M519.9803,464.59853s6.75921-22.89978,10.81474-41.86633,5.40737-26.79968,5.40737-26.79968,3.15429-5.00937,0-10.07877l1.40191-10.58943s6.70914-7.9984,5.35729-17.01068c0,0,10.36412-23.31927-5.40736-33.2891,0,0-14.41965-11.2112-17.57395-11.94236s-33.796-15.1508-36.49972-19.20633-19.3764-11.209-19.3764-11.209-42.1324,64.03608-55.08755,113.32569S390.20785,447.843,390.20785,447.843Z"/>
      <path class="a596a10d-f654-4ce4-840e-f05377310d22" d="M533.49872,328.06251s-21.62947,17.96823-42.80832,53.8202c0,0,7.20982-6.50574,25.685-12.81433,0,0-26.58622,13.51842-32.89481,21.17885,0,0,1.35184,4.50614,10.81473,0s19.827-7.15349,26.58622-11.01187c0,0-21.62947,17.87631-41.45648,16.69716,0,0-8.56166,17.82817-13.51842,26.79968s-13.57925,31.30631-13.57925,31.30631l-4.51735-.23775S487.08549,363.661,533.49872,328.06251Z"/>
      <polygon class="a596a10d-f654-4ce4-840e-f05377310d22" points="466.357 314.995 472.921 338.238 453.289 349.692 451.036 347.481 469.962 338.238 466.357 314.995"/>
      <path class="a596a10d-f654-4ce4-840e-f05377310d22" d="M439.14923,324.96454s19.097,33.0638,25.85618,39.71035L415.1618,460.99362l46.81676-96.31873S438.978,334.48376,439.14923,324.96454Z"/>
      <path class="a596a10d-f654-4ce4-840e-f05377310d22" d="M442.10859,364.4631s10.73024,6.46406,8.92778,9.13958S445.798,372.92563,442.10859,364.4631Z"/>
      <path class="a596a10d-f654-4ce4-840e-f05377310d22" d="M533.49872,399.71013s-21.62947,7.21585-32.4442,8.33937S477.6226,417.622,477.6226,417.622s18.64247-6.3086,34.55561-8.95595S533.49872,399.71013,533.49872,399.71013Z"/>
      <path class="a596a10d-f654-4ce4-840e-f05377310d22" d="M524.03583,408.66608s-34.50466,18.92578-55.77982,26.16377C468.256,434.82985,506.46189,423.48,524.03583,408.66608Z"/>
      <path class="a596a10d-f654-4ce4-840e-f05377310d22" d="M528.542,421.748s-17.57394,14.6872-35.14789,17.05292C493.39408,438.80088,513.67171,440.6315,528.542,421.748Z"/>
      <path class="a596a10d-f654-4ce4-840e-f05377310d22" d="M461.97856,293.81585S506.9125,310.038,528.542,328.06251C528.542,328.06251,493.19837,307.33427,461.97856,293.81585Z"/>
    </g>
    <path class="adc8960b-ef7d-4ea2-b503-424764cd9992" d="M613.23681,510.56905v44.71553l104.11971,5.16075S678.4726,329.09246,660.73525,326.32442c0,0-54.425,12.997-61.99148,44.09255,0,0-22.77469,21.51264-51.16336,25.51555a486.30391,486.30391,0,0,0-50.01815,9.68037s30.41644,13.9673,23.31927,37.772l-5.40736,10.65363s40.21729-.015,52.38386-6.61244,32.02922-11.88357,37.4751-10.42336,0,1.84645,0,1.84645S621.37616,457.50341,613.23681,510.56905Z"/>
    <path class="b74ef7bc-2d0c-4b16-b617-af7298030b58" d="M641.19545,185.66851s-24.78377,17.12333-22.5307,47.76508a16.54661,16.54661,0,0,1,1.91511,12.72984c-2.00005,7.09179-15.76721,17.236-14.08168,22.418,2.59261,7.97087,9.46289,2.25307,8.56166,8.56167s-6.30859,5.40737,0,9.23758a22.48583,22.48583,0,0,0,13.22308,2.929s-11.42062.90123-12.77246,2.25307,0,6.3086,2.70368,6.75921c0,0,1.80246,1.35184,0,4.95676s.73225,13.51841,11.85678,13.0678,24.305-4.02579,25.14989.01487,11.209,15.35994,10.75841,26.373S644.34975,409.68,641.64606,442.77192c0,0,9.91351,4.605,43.25894,4.65415,0,0,21.62947-77.45646,34.69727-101.78962,0,0,5.858-20.32675,6.3086-29.08916,0,0-8.56167-11.46609-5.858-22.73144s26.1356-39.20341,8.56166-68.49331S688.96053,168.54518,641.19545,185.66851Z"/>
    <path class="bee37396-6fdb-4497-8125-1bb91d4cbfde" d="M698.739,402.04545s-9.02854,20.31659-33.624,34.95726c0,0-18.4005-11.615-13.72488-41.07019,0,0-29.79636,53.6831-4.11136,95.59019l11.21181,23.99519,15.26176,5.351s13.40576,1.74613,15.43352-8.73064S698.739,402.04545,698.739,402.04545Z"/>
    <path class="b74ef7bc-2d0c-4b16-b617-af7298030b58" d="M316.23467,541.71315s7.22981-42.15939-8.5176-47.47043c0,0-60.80783,14.06536-84.01493,28.93562L243.754,544.69516Z"/>
    <polygon class="a7a7ed4e-88fc-473b-9e62-cb86258e39e7" points="1.324 626.763 1.324 640 679.047 640 816.71 576.463 816.71 565.874 240.909 538.077 1.324 626.763"/>
    <polygon class="feab7b9e-fb0a-4e11-bcc0-98587350ad4d" points="816.71 565.874 816.71 576.463 679.047 640 655.221 640 816.71 565.874"/>
    <polygon class="a7a7ed4e-88fc-473b-9e62-cb86258e39e7" points="816.71 640 816.71 576.463 679.047 640 737.289 640 794.207 614.85 794.207 640 816.71 640"/>
    <path class="bb1285ab-0d09-4658-b89e-b06b79f248b4" d="M370.8271,354.64873s25.00907-19.30332,38.18953-16.41087c0,0-30.29575-15.218-40.89322-51.85714C368.12341,286.38072,362.04012,313.41756,370.8271,354.64873Z"/>
    <path class="bb1285ab-0d09-4658-b89e-b06b79f248b4" d="M427.60445,354.64873s-2.70368-14.57187-18.58782-16.41087l27.0275-7.41772S435.7155,344.50992,427.60445,354.64873Z"/>
    <polygon class="aa0c4f53-4748-49e8-a028-13dedaa6675b" points="392.006 432.517 390.208 447.843 384.768 447.557 381.017 440.18 392.006 432.517"/>
    <path class="ad0d34b9-77c0-4b54-887f-a39b55f6a633" d="M363.61727,282.60683s-16.67271-6.36492-23.43192,8.95595c0,0-13.51842-1.35184-31.99359,2.70369s-19.62987,6.75921-19.62987,6.75921-7.13245-4.50614-10.1987,7.20982-5.76993,21.62947-3.51686,27.93806c0,0-5.40737,2.788-3.60491,11.30751,0,0-2.25307,1.7603-2.70368,7.16766s-.45062,9.4629-3.1543,12.16658,0,8.449,0,8.449-7.20983,19.93967-7.66044,25.347c0,0-7.49146,8.50534-16.81353,44.80793,0,0-6.61839,19.62986-3.91471,30.4446s18.92579,31.09236,18.92579,31.09236,2.70368,6.30859,12.61719,2.25307,42.80832-16.323,42.80832-16.323,50.617-8.27793,52.72183-47.467c0,0-11.0591-22.43322-4.84468-31.4455,0,0,15.06565-6.14531,20.473-8.849,0,0,2.39621-38.96307-3.01115-54.63307C376.68508,350.49172,382.54306,293.92851,363.61727,282.60683Z"/>
    <path class="a596a10d-f654-4ce4-840e-f05377310d22" d="M358.588,414.12313l-23.7812,6.05032s-24.13328,2.53741-27.58426,7.0062c0,0-24.03325-1.27557-27.18868,1.50433,0,0-28.07619,1.51687-35.27338,9.60153l13.21354-2.73685s-13.49015,9.42844-16.96407,26.24049c0,0,8.573-13.69038,15.72588-18.48107,0,0-10.23578,17.85436-8.6493,38.25486,0,0,5.603-44.90121,23.41778-47.8765a270.75276,270.75276,0,0,1,32.03529-3.444Z"/>
    <path class="a596a10d-f654-4ce4-840e-f05377310d22" d="M290.61782,305.53182s6.75921,17.62788,7.43513,37.20261,11.49065,43.11932,11.49065,43.11932,4.30217,19.95746,3.9925,37.44116l-3.464,2.2036s3.07637-38.40557-9.54082-52.82522-21.23031-17.57394-23.45765-27.03684c0,0,7.23555,8.111,20.97928,22.08009,0,0-4.28084-29.182-4.73145-36.8964S290.61782,305.53182,290.61782,305.53182Z"/>
    <path class="a596a10d-f654-4ce4-840e-f05377310d22" d="M353.18752,414.12313s-8.04542-43.2523-14.80463-52.26457c0,0,10.561,40.36326,9.97915,54.55459Z"/>
    <path class="a596a10d-f654-4ce4-840e-f05377310d22" d="M355.70846,352.84628l-17.32557-14.60842s7.66044-10.626,12.39189-32.706c0,0,2.47837-13.969,12.84249-19.1511,0,0-17.01462,5.401-16.2221,17.34864s-13.51842,36.49973-13.51842,36.49973Z"/>
    <path class="a596a10d-f654-4ce4-840e-f05377310d22" d="M366.07244,345.63645l-27.68955,16.22211S362.219,355.09935,366.07244,345.63645Z"/>
    <polygon class="a596a10d-f654-4ce4-840e-f05377310d22" points="469.424 411.004 436.044 415.482 429.003 432.517 461.979 428.549 469.424 411.004"/>
    <path class="b74ef7bc-2d0c-4b16-b617-af7298030b58" d="M368.12341,286.38072s.67592,12.8425,8.787,22.98131,22.08009,32.44421,37.401,28.38868,20.67191-8.11105,27.79725-7.43513,27.403,2.02776,27.403-12.16658-2.70369-21.62946,0-28.38867,14.53229-3.37961,6.25226-15.03924c0,0-8.28-14.02536-8.95595-18.08089s4.08512-15.54618,1.35184-22.30538-14.81393-38.5275-28.69847-41.23118S324.86448,214.05719,368.12341,286.38072Z"/>
    <path class="a770909b-eb33-41ec-8e28-bf891a3ae933" d="M247.52786,519.46894s-2.03285,8.10522-8.98666,11.9906l-2.60906-3.63785S244.54254,525.22243,247.52786,519.46894Z"/>
    <polygon class="a770909b-eb33-41ec-8e28-bf891a3ae933" points="250.063 537.011 253.316 531.46 243.754 537.011 250.063 537.011"/>
    <path class="aa0c4f53-4748-49e8-a028-13dedaa6675b" d="M314.3729,494.24272s3.74726,33.13326-2.56878,47.25654l33.56329,1.6203S336.77613,495.94885,314.3729,494.24272Z"/>
    <path class="ba7d4812-f3a1-43c6-92f7-a01db96af9e0" d="M387.54453,343.959s5.36265,19.63074,9.86879,25.52436c0,0,13.57508,4.24,20.27762-5.35135s9.91351-9.48328,9.91351-9.48328-2.929-13.44534-18.58782-16.41087S387.54453,343.959,387.54453,343.959Z"/>
    <path class="ba7d4812-f3a1-43c6-92f7-a01db96af9e0" d="M390.20785,447.843s-.455-54.51278,7.20547-78.35968h13.027l1.55347,16.37039S401.09823,434.82985,390.20785,447.843Z"/>
    <g>
      <path class="b74ef7bc-2d0c-4b16-b617-af7298030b58" d="M509.00353,438.91225s.908,7.65342-38.65623,28.79759L441.54971,410.3741s12.58273-3.50241,14.00964-3.89157,5.18876-.38916,11.02611,2.20522,17.77148.77831,17.77148.77831S487.21076,409.07691,509.00353,438.91225Z"/>
      <path class="b74ef7bc-2d0c-4b16-b617-af7298030b58" d="M419.10834,409.85522s12.84217-3.37269,15.04739-4.151,5.059-3.37269,10.50723-1.03775a49.16672,49.16672,0,0,0,10.11808,3.11325l-1.03775,14.52851a157.69787,157.69787,0,0,1,22.18192,15.0474c11.93414,9.59919,16.34458,15.30682,16.08515,18.67951s-1.81607,7.33172-7.78314,4.96305c0,0,1.29719,4.11728-3.50241,6.71165a6.2548,6.2548,0,0,1-5.31847-.64859s.64859,5.31847-5.57791,5.96707c0,0-3.4916,0-4.405-1.16747a6.93022,6.93022,0,0,1-6.62107,6.48594c-6.35622.51888-36.451-11.28554-36.84016-11.41526s-13.7502-3.37269-20.10643-14.3988Z"/>
      <path class="b74ef7bc-2d0c-4b16-b617-af7298030b58" d="M458.41317,422.0488l-8.69117.77831a21.66229,21.66229,0,0,1-5.18876.64859s-4.02128,7.26426-8.9506,7.91286-9.33976.51887-9.85863-2.59438a30.39729,30.39729,0,0,1,5.059-8.69117s2.7241-4.7996,3.243-6.2265,2.20883-3.04772,6.61567-3.76185,14.91767-3.63213,14.91767-3.63213Z"/>
      <path class="a770909b-eb33-41ec-8e28-bf891a3ae933" d="M446.21959,479.93591s1.29719,5.1995,6.35623,3.94556c0,0,8.17229-1.25395,6.35622-7.7399a4.29572,4.29572,0,0,0-3.89157-2.33494s3.11326-1.94578-.64859-6.09679-10.11807-.12971-11.545,1.42691-4.41044,2.20522-4.41044,2.20522.64859-5.31847-5.31848-6.09678a8.78976,8.78976,0,0,0-8.06284,2.8457,5.43815,5.43815,0,0,0-.4986.65671l-.56072-1.03776s-1.77422,4.28073,2.63622,9.08033c0,0,3.32437,1.93943,7.26426-1.03775l2.46465-1.13882s2.59438,3.11783,4.02129,3.74981S443.36577,480.74672,446.21959,479.93591Z"/>
      <path class="a770909b-eb33-41ec-8e28-bf891a3ae933" d="M407.99169,459.72746s-4.19018,10.31732-.81748,13.43058c0,0,3.11325,3.37269,5.96706,0a33.68788,33.68788,0,0,0,4.64271-7.64952S410.63659,462.22664,407.99169,459.72746Z"/>
      <path class="b47d518d-705d-4c23-86c0-0d7b13a1358d" d="M433.76658,427.36727s3.243-4.02128,1.68634-5.96707S430.783,420.103,430.783,420.103s-4.54016,5.059-5.059,8.69117C425.724,428.79418,431.1722,428.405,433.76658,427.36727Z"/>
      <path class="b47d518d-705d-4c23-86c0-0d7b13a1358d" d="M456.85654,480.325s-2.98354,2.54211-5.059,1.3197a3.75912,3.75912,0,0,1-1.94578-3.2813l4.151-3.12987A10.65908,10.65908,0,0,0,456.85654,480.325Z"/>
      <path class="b47d518d-705d-4c23-86c0-0d7b13a1358d" d="M454.39188,473.158s-3.11646-4.54016-4.54176-5.4482c0,0-5.42434,3.30209-4.92772,5.4482S447.77622,479.644,454.39188,473.158Z"/>
      <path class="b47d518d-705d-4c23-86c0-0d7b13a1358d" d="M436.49067,473.80663s-2.69048-.72967-5.69082-5.29415c0,0-3.03277,1.58073-3.40571,3.632S431.69107,478.34679,436.49067,473.80663Z"/>
      <path class="b47d518d-705d-4c23-86c0-0d7b13a1358d" d="M486.69188,460.31587s4.02778-4.02443,4.28073-5.70763c0,0,1.93561,1.99757.48534,4.13874S488.37823,462.65081,486.69188,460.31587Z"/>
      <path class="b47d518d-705d-4c23-86c0-0d7b13a1358d" d="M474.10915,466.54237a13.276,13.276,0,0,1-2.59438,4.7996l1.77016.50951a5.92394,5.92394,0,0,0,2.12141-4.79023Z"/>
      <path class="a770909b-eb33-41ec-8e28-bf891a3ae933" d="M459.96979,441.03858s1.55663,3.84074,12.58273,10.71584a43.00088,43.00088,0,0,1,10.87407,8.61223s-5.42412-2.9046-8.1491-5.75841S460.09951,446.14844,459.96979,441.03858Z"/>
      <path class="a770909b-eb33-41ec-8e28-bf891a3ae933" d="M453.35333,455.646s2.21493-.6519,8.43253,3.37269,2.98353,3.243,12.97188,7.52369l-6.02495-2.047s-4.74171-3.07429-5.39031-3.49717A31.77524,31.77524,0,0,0,453.35333,455.646Z"/>
      <path class="a770909b-eb33-41ec-8e28-bf891a3ae933" d="M464.89911,471.85148s-.916-.53116-4.92932-1.1581-5.70763-7.394-16.21486-7.65342c0,0,5.83735.12972,14.65824,7.5237Z"/>
      <path class="a770909b-eb33-41ec-8e28-bf891a3ae933" d="M472.68224,457.0729s-3.11282,2.7179-3.11325,4.92931Z"/>
      <path class="a770909b-eb33-41ec-8e28-bf891a3ae933" d="M464.05554,463.04s-2.99768,3.12874-3.048,5.47252Z"/>
      <path class="a770909b-eb33-41ec-8e28-bf891a3ae933" d="M471.12562,462.00221s3.82-4.7587,3.63212-6.39525C474.75774,455.607,474.33971,460.04158,471.12562,462.00221Z"/>
      <path class="a770909b-eb33-41ec-8e28-bf891a3ae933" d="M466.1963,464.20743l-4.28072,4.9895A18.30965,18.30965,0,0,0,466.1963,464.20743Z"/>
      <path class="a770909b-eb33-41ec-8e28-bf891a3ae933" d="M493.39408,441.03858s-11.16657-1.8873-12.98263-1.59224l-1.81337-1.5039s13.7341-3.00065,12.11931-11.5621c0,0,3.31454,8.17229-10.30594,11.80442C480.41145,438.18476,483.80564,438.18476,493.39408,441.03858Z"/>
      <path class="a770909b-eb33-41ec-8e28-bf891a3ae933" d="M491.95953,455.03668s-.8338-8.60451-24.87539-24.32059l-12.69226-8.30718-9.85864,1.06679s-4.03725,8.64233-11.8278,8.1897-6.98143-2.87122-6.98143-2.87122,6.46748,3.70907,11.31854,0a26.294,26.294,0,0,0,6.71238-7.03394l11.54294-1.761s22.96186,16.02978,28.12872,21.03934C493.39408,450.70261,491.95953,455.03668,491.95953,455.03668Z"/>
      <path class="a770909b-eb33-41ec-8e28-bf891a3ae933" d="M452.55,407.29773l-13.08881,3.04736s-3.93367.46851-5.43522,3.53142-3.243,6.2265-3.243,6.2265,5.49356-7.27322,6.77015-7.6562S452.55,407.29773,452.55,407.29773Z"/>
    </g>
    <path class="b74ef7bc-2d0c-4b16-b617-af7298030b58" d="M366.431,412.13923s7.77572-5.388,52.67736-1.82835l-17.25261,42.67751s-14.19168,2.50567-15.344,6.27185C386.51172,459.26024,367.78019,431.20985,366.431,412.13923Z"/>
    <path class="bb1285ab-0d09-4658-b89e-b06b79f248b4" d="M386.82058,402.04545s-3.23881,2.25584-4.16487,35.36277l2.11241,21.14345-20.70023-2.13746s-12.87946-33.54257-6.665-41.65362Z"/>
    <polygon class="bb1285ab-0d09-4658-b89e-b06b79f248b4" points="392.77 409.045 386.821 402.045 384.751 409.18 392.77 409.045"/>
    <g>
      <polygon class="ee26a179-75d9-43a2-8042-265ad68fc787" points="590.361 596.319 352.098 577.787 288.562 445.419 540.061 458.656 590.361 596.319"/>
      <polygon class="bc9625fe-ad04-44ff-87af-8590ffa5b45d" points="595.655 588.377 545.356 456.009 293.857 442.772 288.562 445.419 540.061 458.656 590.361 596.319 595.655 588.377"/>
      <path class="ee26a179-75d9-43a2-8042-265ad68fc787" d="M673.75231,557.93194l-90.93877-3.34946,11.51806,35.11774S671.105,565.874,673.75231,557.93194Z"/>
      <path class="f7402622-6c74-4c79-b9c7-2777588ab72c" d="M350.77478,576.46344s2.64735,5.29471,18.53149,7.94207,219.73062,15.88414,219.73062,15.88414l74.126-26.47357a15.77987,15.77987,0,0,0,10.41877-14.85169l-77.92637,29.41215-6.61839,3.971Z"/>
      <polygon class="f7402622-6c74-4c79-b9c7-2777588ab72c" points="630.071 569.845 591.939 582.406 586.64 566.251 630.071 569.845"/>
      <polygon class="f7402622-6c74-4c79-b9c7-2777588ab72c" points="613.237 560.767 584.251 558.964 585.644 563.212 602.148 564.674 613.237 560.767"/>
    </g>
    <path class="adc8960b-ef7d-4ea2-b503-424764cd9992" d="M731.31823,293.81585l-11.716,51.8206s-38.30218,93.93106-37.85157,127.85073,7.20983,30.31476,3.60491,42.93195c0,0-8.33635-.43273-11.6033,2.262s-11.58162,19.79131-7.05018,40.28325L816.70957,565.874s51.14468,7.32248,43.48425-43.14628-16.2221-61.35136-22.08009-116.96825-18.02455-62.63592-34.69727-68.13868-22.55306-10.23927-49.56753-17.10607l1.80246-6.6093S734.92315,292.91463,731.31823,293.81585Z"/>
    <path class="bb1285ab-0d09-4658-b89e-b06b79f248b4" d="M497.56226,405.61289l-13.20532,3.85317s23.97524,19.70949,18.25232,44.29284l12.86491.27961S541.045,425.43744,497.56226,405.61289Z"/>
    <polygon class="aa0c4f53-4748-49e8-a028-13dedaa6675b" points="502.609 453.759 494.478 453.331 503.65 446.19 502.609 453.759"/>
    <path class="b2b66694-19da-49b0-820c-7f476b89d5c6" d="M575.29316,391.05051s-11.15269,9.89688-3.71756,40.65224c0,0-8.449-21.00088-5.06941-30.6086,0,0-8.787,9.56634-5.40736,18.90509,0,0-8.087-12.52345,5.0694-24.06672Z"/>
    <path class="b2b66694-19da-49b0-820c-7f476b89d5c6" d="M753.06036,324.96454,747.8783,349.692l-12.78158,6.98452,11.20443,2.02776s-11.1527,40.62409-22.64335,50.39052-34.472,91.2149-34.472,91.2149,16.11452-73.60421,31.93726-93.82715,21.12253-44.624,21.12253-44.624l-14.87026-4.8441,17.236-9.4629Z"/>
    <path class="b2b66694-19da-49b0-820c-7f476b89d5c6" d="M658.43143,330.82014c1.19618-1.001-15.88414,3.04343-39.87933,43.68347l11.51882,8.5338-11.51882,8.0131s-14.19434,76.477,32.4442,121.08779c0,0-37.51361-38.92178-28.72663-119.15922l13.18045-10.61759-11.49065-10.13881S642.88525,343.82923,658.43143,330.82014Z"/>
    <path class="b2b66694-19da-49b0-820c-7f476b89d5c6" d="M803.41646,342.73443c1.289-.75854-47.65242,32.19193-34.80992,109.58487C768.60654,452.3193,743.2595,378.1346,803.41646,342.73443Z"/>
    <path class="b2b66694-19da-49b0-820c-7f476b89d5c6" d="M810.85159,367.49123c-1.01388.67592-24.11085,33.702-35.8238,41.68909s-6.67911,41.52229-6.67911,41.52229-.756-28.47507,8.36891-36.57948S810.85159,367.49123,810.85159,367.49123Z"/>
    <path class="b2b66694-19da-49b0-820c-7f476b89d5c6" d="M810.85159,386.07905s-24.02636,23.37471-33.796,35.68119S768.9445,455.607,768.9445,455.607s1.6898-25.02978,15.88414-37.98493S810.85159,386.07905,810.85159,386.07905Z"/>
    <path class="b2b66694-19da-49b0-820c-7f476b89d5c6" d="M812.87936,453.7589s-19.26375,13.43066-20.95355,46.55078v7.09717l-4.39349,1.35184S782.80088,476.828,812.87936,453.7589Z"/>
    <path class="b2b66694-19da-49b0-820c-7f476b89d5c6" d="M840.59211,523.629s-17.6866-9.8977-23.88254-13.0599-22.418-5.52792-29.17725-1.81036C787.53232,508.75869,802.06462,489.83291,840.59211,523.629Z"/>
    <path class="b2b66694-19da-49b0-820c-7f476b89d5c6" d="M833.49494,494.24272s-10.81473,3.70124-20.61558,4.37716-20.95355,6.86005-20.95355,6.86005v-5.17025s15.88414-4.39348,22.13641-4.39348S833.49494,494.24272,833.49494,494.24272Z"/>
    <path class="b2b66694-19da-49b0-820c-7f476b89d5c6" d="M803.44151,431.70275c-.701,1.01485-10.70841,20.90058-20.068,28.02471s-1.24855,24.34915-1.24855,24.34915-12.71112-12.64714,1.24855-29.46837S803.44151,431.70275,803.44151,431.70275Z"/>
    <path class="b2b66694-19da-49b0-820c-7f476b89d5c6" d="M803.44151,534.44369s-11.9706-22.40224-26.61341-23.87464-27.48531.89333-38.3,1.56925-49.34223,4.05552-49.34223,4.05552,26.36092-.338,39.54137-.67592S783.5269,504.70317,803.44151,534.44369Z"/>
    <path class="aa0c4f53-4748-49e8-a028-13dedaa6675b" d="M675.92557,517.516l-15.80434-3.96325s-18.29642,18.77543-10.5,43.49044l16.78335.61817S661.65142,531.68058,675.92557,517.516Z"/>
    <path class="b74ef7bc-2d0c-4b16-b617-af7298030b58" d="M618.21414,527.00856s-1.35184-6.42125,5.40737-10.47678,5.462-9.12493,13.88371-7.77309,20.98533,6.75921,20.98533,6.75921-15.31389,18.5-8.86937,41.52524l-31.52421-.75733S610.10309,545.59638,618.21414,527.00856Z"/>
    <path class="b2b66694-19da-49b0-820c-7f476b89d5c6" d="M610.10309,358.02834s-11.49066,29.38927-6.08329,56.09479,6.84579,35.85149,6.84579,35.85149S584.14306,400.18643,610.10309,358.02834Z"/>
    <path class="b2b66694-19da-49b0-820c-7f476b89d5c6" d="M731.31823,293.81585s-7.93434-1.6175-11.51495,1.388c0,0-1.4402,11.63069,6.10759,21.34345Z"/>
    <path class="e23080fd-b142-475c-8318-2f5d06c50287" d="M667.78928,239.40422s-16.7337-1.49-29.86078-4.8441a90.89129,90.89129,0,0,1,4.95675-25.9103,45.72657,45.72657,0,0,0-9.23758,25.9103s-20.64167.1901-23.76989-8.449,11.461-46.00429,37.80966-45.72633c0,0,25.7045-14.38892,54.67885-6.95379s47.31446,18.99673,55.76347,67.663-15.9046,82.3944-15.9046,82.3944-46.956,26.09091-92.24274,27.78071C649.98242,351.26913,706.54968,263.39941,667.78928,239.40422Z"/>
    <path class="f92b2ef5-8239-420d-8455-eb398eb9682c" d="M654.37591,246.16343s-9.27623-7.51177-29.55385-5.822l-.29933-4.4295S649.08119,233.43359,654.37591,246.16343Z"/>
    <path class="bdc1d11d-d6bf-4339-ae4f-d404f60030f8" d="M417.784,265.56822s17.88906-14.33538,33.45647-11.6317c0,0,6.23229,1.01388,2.11288-6.08329S422.4958,248.47328,417.784,265.56822Z"/>
    <path class="bdc1d11d-d6bf-4339-ae4f-d404f60030f8" d="M468.81135,236.77553a30.949,30.949,0,0,0-4.28472,6.43075c-1.26735,2.95715,1.3399,7.38225,3.2469,5.80338S471.06831,237.9489,468.81135,236.77553Z"/>
    <path class="a770909b-eb33-41ec-8e28-bf891a3ae933" d="M715.35164,354.64873s-11.51,17.79925-30.66652,20.61559c0,0,13.06335,3.1543,27.36986-10.30779Z"/>
    <path class="a770909b-eb33-41ec-8e28-bf891a3ae933" d="M681.0694,379.23536l-7.31709,18.28511S673.62888,388.5011,681.0694,379.23536Z"/>
    <path class="a770909b-eb33-41ec-8e28-bf891a3ae933" d="M636.53547,315.82487s16.37718-4.08248,18.68534.53655,7.127,12.95,7.127,12.95,3.07372-17.02037-3.85727-18.37221S636.53547,315.82487,636.53547,315.82487Z"/>
    <path class="bdc1d11d-d6bf-4339-ae4f-d404f60030f8" d="M449.85012,192.89858c2.30774,1.53432,17.57734,18.73226-7.74153,24.45157s-42.215-3.74358-46.60944,14.281,8.67338,23.76451,8.67338,23.76451-4.79675,20.95892-3.0743,27.21119-12.33808,0-12.33808,0-1.26034-16.90534-13.87753-21.32333-16.92886,6.61631-10.96618,17.28081,17.80782,17.50461,10.33148,26.96751c0,0-29.55643-30.19114-23.47314-80.6599S416.67027,170.83874,449.85012,192.89858Z"/>
    <path class="a770909b-eb33-41ec-8e28-bf891a3ae933" d="M444.2264,330.42823s-32.89482-3.15429-45.512-13.51841-12.61719-12.61719-12.61719-12.61719l29.0646,32.4442S424.39938,330.42823,444.2264,330.42823Z"/>
    <polygon class="a7e424cd-7a87-4c3d-aea2-cc385e088f16" points="234.631 566.278 312.26 570.528 247.401 618.648 123.442 616.577 234.631 566.278"/>
    <g>
      <path class="aa0c4f53-4748-49e8-a028-13dedaa6675b" d="M0,336.87765s18.5315-5.29472,26.47357-5.29472l15.88414-7.94207s55.59449,74.126,58.24185,87.36278c0,0,0-13.23679,13.23678-23.82621,0,0,29.12093-39.71036,42.35771-26.47357s7.94207,50.29978,23.82621,71.47863,7.94207,39.71035,13.23679,42.35771,2.64735,18.5315,5.29471,18.5315,18.5315-5.29472,15.88414,10.58942c0,0,21.17886,21.17886,26.47357,31.76829l-29.12093,15.88414-50.29978,13.23678s-13.23678-18.5315-18.53149-21.17885l-5.29472-2.64736-7.94207,23.82621s31.76828-7.94207,34.41564,5.29471,10.58943,39.71036-13.23678,42.35771-39.71035,10.58943-50.29978,10.58943S0,628.08689,0,628.08689Z"/>
      <path class="ed370281-744e-4f2f-ad09-735de338b470" d="M108.54163,440.12456s5.29471-29.12092-7.94207-29.12092c0,0,2.64736,7.94207-10.58943,26.47356,0,0-10.58943,63.53657-5.29471,121.77842,0,0,7.94207,7.94207,15.88414,2.64735,0,0,10.58943,2.64736,13.23678,2.64736C113.83634,564.55033,113.83634,453.36135,108.54163,440.12456Z"/>
      <path class="bb1285ab-0d09-4658-b89e-b06b79f248b4" d="M83.39174,444.0956s18.5315-10.58943,15.88414-31.76828c0,0,5.29471-7.94208-55.59449-87.36278l-15.88414,7.94207S48.9761,391.14846,83.39174,444.0956Z"/>
      <g>
        <path class="ebf70407-2936-4f42-a8f8-593e15a01bd8" d="M27.79725,417.622S48.9761,459.97974,14.56046,518.22159c0,0,5.29472,13.23678,0,34.41564,0,0,13.23679,7.94207,18.5315,5.29471s2.64736-37.063-5.29471-42.35771C27.79725,515.57423,54.27081,449.39031,27.79725,417.622Z"/>
        <path class="ebf70407-2936-4f42-a8f8-593e15a01bd8" d="M59.56553,557.93194s-5.29472-39.71035-5.29472-47.65242V481.15859l10.58943-5.29471,18.5315,55.59449v26.47357S78.097,555.28458,59.56553,557.93194Z"/>
        <path class="ebf70407-2936-4f42-a8f8-593e15a01bd8" d="M84.517,487.777s-11.71471-41.034-24.95149-48.9761l23.82621,68.15536Z"/>
        <path class="ebf70407-2936-4f42-a8f8-593e15a01bd8" d="M64.86024,417.622S38.38667,388.5011,33.092,367.32225,0,345.63645,0,345.63645V364.4631s19.85518,2.85915,27.79725,16.09593S51.62346,422.91674,64.86024,417.622Z"/>
        <path class="ebf70407-2936-4f42-a8f8-593e15a01bd8" d="M115.16,592.34758,14.56046,587.05286S43.68139,602.937,115.16,592.34758Z"/>
        <path class="ebf70407-2936-4f42-a8f8-593e15a01bd8" d="M6.61839,587.05286s18.5315-18.53149,13.23679-21.17885-13.23679-7.94207-13.23679-7.94207S19.85518,565.874,6.61839,587.05286Z"/>
        <path class="ebf70407-2936-4f42-a8f8-593e15a01bd8" d="M131.04416,565.874s-31.43032-7.94207-36.894,0c0,0-21.34784-21.17885-45.174,0,0,0,31.76828,0,50.29978,7.94207S131.04416,565.874,131.04416,565.874Z"/>
        <path class="ebf70407-2936-4f42-a8f8-593e15a01bd8" d="M218.40694,539.40044l-15.88414-5.29471H189.286l7.94207-5.29472-21.17885,5.29472,7.94207-10.58943H170.75451l31.76829-15.88414H189.286l24.69271-11.34461s-6.16121-12.4816-35.28214,6.0499c0,0-2.64735-18.5315-26.47356-10.58943s-5.29472,2.64736-5.29472,2.64736l-7.94207,45.00506s21.17886,15.88414,23.82621,26.47357c0,0,63.38517-7.61882,60.81351-21.01723S218.40694,539.40044,218.40694,539.40044Z"/>
        <path class="ebf70407-2936-4f42-a8f8-593e15a01bd8" d="M148.252,487.777s13.23678-84.71541,10.58943-105.89427c0,0,7.94207,23.82621,5.29471,37.063s10.58943,15.88414,5.29472,26.47357-5.29472,18.53149-5.29472,18.53149l5.29472,5.29472Z"/>
        <path class="ebf70407-2936-4f42-a8f8-593e15a01bd8" d="M146.9283,375.26432s3.01525,48.98984-34.23169,114.505c0,0,31.58434-85.38413,26.28962-114.505Z"/>
      </g>
      <path class="aa0c4f53-4748-49e8-a028-13dedaa6675b" d="M120.45473,378.99532s8.31,39.69692-7.75812,80.19584c0,0,13.05284-54.80592,2.46341-73.33741Z"/>
      <path class="bb1285ab-0d09-4658-b89e-b06b79f248b4" d="M100.59956,411.00364s5.29471-5.29472,13.23678,23.82621c0,0,18.5315-21.17886,7.94207-55.59449C121.77841,379.23536,97.9522,397.76685,100.59956,411.00364Z"/>
      <path class="ebf70407-2936-4f42-a8f8-593e15a01bd8" d="M112.51266,616.17379s7.94207-31.76828,1.32368-51.62346l11.21041,6.50914S133.69152,597.64229,112.51266,616.17379Z"/>
      <path class="b74ef7bc-2d0c-4b16-b617-af7298030b58" d="M42.35771,323.64086s5.29471-37.063-2.64736-52.94713,58.24185-74.126,119.13106-39.71036c0,0,26.47357,5.29472,31.76828,60.88921,0,0-2.64736,5.29471,0,10.58943s16.09124,25.9733,7.10993,29.20541c-9.39116,3.37961-10.13886,2.45888-10.13886,2.45888s-2.26578,15.98813-4.91314,23.9302-.87254,15.68584-3.971,22.50253c-6.61839,14.56047-55.53794-6.61839-54.90438-5.29471s-25.25758,30.49516-25.25758,30.49516S63.53656,339.525,42.35771,323.64086Z"/>
      <path class="b74ef7bc-2d0c-4b16-b617-af7298030b58" d="M252.82257,592.34758s21.17886-2.64736,23.82622-15.88414-7.94207-21.17886-7.94207-21.17886l-7.94208-10.58942s-14.60907-12.00693-25.836-6.00347a132.05372,132.05372,0,0,0-19.1127,12.42471S226.349,594.99493,252.82257,592.34758Z"/>
      <path class="b74ef7bc-2d0c-4b16-b617-af7298030b58" d="M159.47277,609.58391s66.87624,3.94252,82.76038-6.64691,5.29471-15.88414,5.29471-15.88414,2.64736-15.88414,0-15.88414,13.23678-2.64735,2.64736-13.23678-26.47357-13.23678-26.47357-13.23678-71.47863,0-63.53656,21.17885S169.36987,597.69931,159.47277,609.58391Z"/>
      <path class="bdc1d11d-d6bf-4339-ae4f-d404f60030f8" d="M124.42577,323.64086s-3.971-27.79724-22.50253-17.20782S99.27588,335.554,99.27588,335.554s-26.47357,29.12092-50.29978-3.64329l-9.26575-8.26982V281.28315c0-18.53149-21.17885-45.00506,29.12093-66.18392s95.30484-15.88414,121.77841,10.58943-29.12093,26.47357-34.41564,37.063,2.64736,29.12092,2.64736,29.12092-23.82621,7.94207-21.17886,21.17885S140.30991,320.99351,124.42577,323.64086Z"/>
      <path class="a770909b-eb33-41ec-8e28-bf891a3ae933" d="M170.69355,385.41576l-52.88617-20.74087L92.87506,395.41264l6.40082,11.62,22.50253-33.092S158.71948,386.30146,170.69355,385.41576Z"/>
      <path class="a770909b-eb33-41ec-8e28-bf891a3ae933" d="M247.52786,571.16872v15.88414s12.60433,10.98372-2.19674,15.88414-40.161,10.58943-85.166,7.94208c0,0,7.31345-13.00649,6.30408-18.41635S205.17015,624.11586,247.52786,571.16872Z"/>
      <path class="a770909b-eb33-41ec-8e28-bf891a3ae933" d="M247.52786,581.75815s23.82621,0,21.17886-26.47357c0,0,21.58952,18.5315.20533,31.76828l-21.38419,7.94207Z"/>
      <path class="bdc1d11d-d6bf-4339-ae4f-d404f60030f8" d="M163.31938,289.76033s11.11294-6.75921,26.679-3.37961l.61131,5.49186Z"/>
      <path class="a770909b-eb33-41ec-8e28-bf891a3ae933" d="M197.5338,558.7411s20.64563-.52937,39.70313,3.44094,11.11688,15.08719,10.32282,16.67532-2.91157,5.29375-8.99938,2.91156a10.93536,10.93536,0,0,1,6.88187,12.44031H242.266S246.76568,583.357,225.0613,578.328c0,0,18.26084,4.09028,21.43969-1.86454s-2.1175-11.10515-7.41125-12.1639S197.5338,558.7411,197.5338,558.7411Z"/>
      <path class="a770909b-eb33-41ec-8e28-bf891a3ae933" d="M223.70165,544.69516s17.24769.83143,23.82621-.15527,5.77579,14.82419-10.29093,17.64215c0,0,11.89868-9.04741,9.20786-13.26715S223.70165,544.69516,223.70165,544.69516Z"/>
      <path class="bbe745e1-aff9-4431-af1d-3042c02b96f1" d="M237.23693,562.182s-17.58384-34.89186-21.421-36.7178l-6.13506,2.35745,17.20776,32.62364Z"/>
      <path class="ff5c1231-037e-4d80-8061-03597087c7c3" d="M215.81591,525.46424s-4.9101-12.3541-7.667-11.01743c-2.80851,1.3617-5.98323-.87284,1.53191,13.37488Z"/>
      <path class="ff5c1231-037e-4d80-8061-03597087c7c3" d="M211.7234,525.46424s-4.44557.97867-1.34991,8.77089a104.40582,104.40582,0,0,0,7.47757,14.42444s-1.01429,2.47254-3.06383-.76595c-6.21276-9.81686-11.12536-24.25532-4.41374-24.25532Z"/>
    </g>
    <polygon class="a7e424cd-7a87-4c3d-aea2-cc385e088f16" points="600.149 640 524.036 616.174 423.643 640 600.149 640"/>
    <polygon class="b43faeeb-c43d-4af6-bbd0-eec7a4d8784f" points="588.5 640 512.386 616.174 411.994 640 588.5 640"/>
    <polygon class="a7e424cd-7a87-4c3d-aea2-cc385e088f16" points="569.275 640 493.162 616.174 392.77 640 569.275 640"/>
    <polygon class="adc8960b-ef7d-4ea2-b503-424764cd9992" points="794.207 640 794.207 614.85 737.289 640 794.207 640"/>
    <polygon class="fd1f8f7a-2b37-4af5-b301-b558ca42dbab" points="1280 100.05 1109.928 280.55 1109.928 440.442 1280 462.542 1280 100.05"/>
    <polygon class="fd1f8f7a-2b37-4af5-b301-b558ca42dbab" points="1063.791 109.909 972.117 188.248 972.117 240.194 1063.791 109.909"/>
    <polygon class="fd1f8f7a-2b37-4af5-b301-b558ca42dbab" points="945.284 294.926 877.436 342.371 877.436 412.515 945.284 421.131 945.284 294.926"/>
    <polygon class="fd1f8f7a-2b37-4af5-b301-b558ca42dbab" points="847.583 35.08 803.442 85.099 803.252 147.444 847.583 133.686 847.583 35.08"/>
    <polygon class="fd1f8f7a-2b37-4af5-b301-b558ca42dbab" points="850.297 192.899 803.252 242.772 803.442 314.995 850.297 267.134 850.297 192.899"/>
    <g>
      <g>
        <path class="f8c04b9a-292e-4067-9c80-5882a1e89bb5" d="M1074.40355,600.62113s1.57262,25.02922,11.6603,40.18153l110.11544.12806s7.06734-12.82116,9.24191-39.9169Z"/>
        <path class="b56836dc-01cd-4bed-b3c5-683230028bbc" d="M1198.8975,602.38824s.54364,20.22363-30.44394,28.27381-87.38128.37659-87.38128.37659l4.99157,9.764,110.11544.12806s4.77816-7.76051,9.24191-39.9169l-7.06735-.19635Z"/>
      </g>
      <path class="f8c04b9a-292e-4067-9c80-5882a1e89bb5" d="M1165.50614,620.5731c1.66211-8.0091,3.81336-15.85755,6.06384-23.6734l1.73206-5.84729,1.82007-5.81848c1.18872-3.887,2.51928-7.72748,3.92749-11.54242,2.82629-7.62665,6.10595-15.10431,8.77929-22.78119,2.68494-7.6731,4.99048-15.47083,7.09546-23.33448,1.07569-3.92419,2.09388-7.86731,3.22083-11.77459,1.11-3.91294,2.29663-7.80069,3.47864-11.68994,2.34655-7.78428,4.75671-15.54764,7.32959-23.25754q3.93364-11.54041,8.25378-22.95383c2.89856-7.6029,5.868-15.18249,9.18689-22.64731l.45837.15061c-1.75524,7.97854-3.85974,15.84231-6.03515,23.6828q-3.28033,11.75509-6.96814,23.37628c-2.5011,7.73349-5.165,15.41348-7.89246,23.07257-1.355,3.83246-2.70532,7.66638-4.13232,11.47516-1.41,3.81433-2.92883,7.593-4.39026,11.39044-2.96887,7.57971-5.73743,15.22534-8.12647,22.99567-2.40063,7.76648-4.19494,15.73217-6.44262,23.54895-1.12879,3.90674-2.33521,7.788-3.68347,11.62262l-1.98548,5.764-2.07336,5.73523c-2.82349,7.62757-5.74634,15.22248-9.15821,22.65674Z"/>
      <path class="f8c04b9a-292e-4067-9c80-5882a1e89bb5" d="M1110.87489,616.444c-1.73914-7.38147-3.04444-14.80182-4.28272-22.22992l-.89355-5.57459-.81873-5.58343c-.57751-3.7179-1.02038-7.45319-1.3905-11.19965-.73633-7.49219-1.05042-15.05267-2.04675-22.51727-.98279-7.46558-2.43555-14.86029-4.14478-22.20062l-2.5686-11.00171-2.42151-11.01371-4.95166-21.96133c-1.58557-7.32712-3.2273-14.631-5.00049-21.902a223.04856,223.04856,0,0,0-6.24976-21.59393l.43177-.21555a78.11916,78.11916,0,0,1,5.28991,10.10877c.7677,1.74078,1.538,3.48773,2.1908,5.26944.68213,1.77347,1.39246,3.54355,1.979,5.34643,1.27576,3.58075,2.38672,7.20728,3.46058,10.84479q1.59429,5.458,2.91906,10.98129c1.72913,7.36933,3.16443,14.79679,4.40711,22.24909.6228,3.72561,1.25512,7.44882,1.75512,11.193.53492,3.7384.92347,7.49988,1.36255,11.24988.8158,7.51062,1.78748,14.98425,3.07935,22.41022,1.28088,7.42651,3.1438,14.77233,4.48621,22.20025.66247,3.71454,1.2362,7.44245,1.64855,11.19135l.64771,5.61908.53882,5.63244c.64172,7.51819,1.14282,15.054,1.05224,22.64618Z"/>
      <path class="f8c04b9a-292e-4067-9c80-5882a1e89bb5" d="M1010.238,440.32461c5.85413,7.60175,11.27209,15.477,16.60168,23.40775l3.95765,5.9728,3.87927,6.022c2.608,4.00091,5.08972,8.08111,7.5022,12.20471,4.81591,8.25281,9.22766,16.75909,14.18005,24.92633,4.942,8.17371,10.22241,16.13525,15.68164,23.98468,2.709,3.93762,5.46924,7.84308,8.13245,11.80951,2.67834,3.95679,5.28833,7.95648,7.90246,11.95367,5.24378,7.98444,10.43091,16.00452,15.4729,24.11554q7.49672,12.2082,14.64868,24.63251c4.75159,8.29315,9.43995,16.626,13.81678,25.15418l-.40882.25634c-5.77111-7.65381-11.23083-15.50293-16.62719-23.39172q-8.07935-11.84271-15.79529-23.91345c-5.106-8.07093-10.06677-16.23285-14.97095-24.43036-2.45984-4.09381-4.92383-8.18506-7.31946-12.31928-2.41089-4.12457-4.72461-8.31012-7.0896-12.46344-4.68884-8.33252-9.55639-16.553-14.76233-24.56121-5.19555-8.01474-10.93176-15.69043-16.26379-23.61957-2.66162-3.96741-5.25391-7.97818-7.71985-12.06827l-3.73169-6.1145-3.65332-6.16367c-4.81848-8.25122-9.54846-16.55792-13.84228-25.13818Z"/>
      <path class="f8c04b9a-292e-4067-9c80-5882a1e89bb5" d="M1149.78351,617.20418c-.23413-2.92609-.31091-5.83923-.3258-8.74732-.03687-2.90985.023-5.81176.12085-8.71057q.14978-4.34784.447-8.68365c.18042-2.892.45227-5.77637.84705-8.6507.78759-5.74878,2.03637-11.45959,2.65686-17.2221a164.11942,164.11942,0,0,0,.88635-17.36805c.03552-2.90387.01074-5.81274.1001-8.71222.07153-2.90094.22351-5.79522.37072-8.68994.29883-5.78906.58033-11.57953,1.13172-17.34778q.848-8.65064,2.10156-17.26788c.85486-5.74322,1.7843-11.48035,3.08008-17.18725l.48083.03961c.34449,5.842.32251,11.6539.22608,17.45962q-.1626,8.70708-.75269,17.379c-.3999,5.7807-1.06982,11.53918-1.72229,17.29907-.32849,2.87982-.65222,5.76-1.05639,8.63349-.38623,2.875-.88672,5.7406-1.32691,8.6112a164.11611,164.11611,0,0,0-1.96789,17.27887c-.33069,5.78644-.03345,11.62457-.19715,17.42475-.08093,2.9002-.28479,5.79022-.58008,8.67272q-.41235,4.32633-.98,8.63978c-.3778,2.87573-.79358,5.74829-1.30627,8.61291-.4906,2.86639-1.043,5.72772-1.75281,8.57605Z"/>
      <path class="f8c04b9a-292e-4067-9c80-5882a1e89bb5" d="M1143.751,626.92812c-2.32141-9.35389-4.20716-18.76758-5.99207-28.19666l-1.31409-7.07526-1.22338-7.08929c-.85877-4.71905-1.57019-9.46173-2.201-14.21838-1.28516-9.50849-2.08936-19.10266-3.61121-28.57685-1.464-9.48394-3.443-18.87811-5.58557-28.23669-1.087-4.676-2.23352-9.33926-3.267-14.02274l-3.08533-14.0484c-2.01269-9.37426-4.16638-18.70663-6.10595-28.08584-1.02124-4.67447-2.0188-9.35453-2.95569-14.05072-.44934-2.35413-.98877-4.68109-1.51026-7.0145l-1.50366-7.01813c-.9187-4.70862-2.16772-9.30517-3.18152-13.99389-.27173-1.16547-.52026-2.34159-.80859-3.50119l-.94678-3.45423q-.93456-3.46385-1.81628-6.97226l.44958-.17544q1.4676,3.29305,2.87464,6.63666l1.39868,3.35028c.44922,1.12252.80591,2.27026,1.212,3.40573.79395,2.2756,1.57972,4.55679,2.34046,6.84744.37915,1.14517.78052,2.28662,1.14172,3.43652l1.014,3.46576c1.32971,4.62586,2.72107,9.24961,3.88794,13.9162,1.19421,4.66071,2.32776,9.33753,3.43774,14.01993,2.02161,9.40027,3.92237,18.8288,5.54554,28.30081.84277,4.73068,1.71032,9.45651,2.41577,14.21033.74255,4.74728,1.37219,9.51468,2.061,14.26941q1.87464,14.29833,4.52088,28.44818c1.80517,9.42834,4.15185,18.767,6.03991,28.18732.92176,4.71337,1.76307,9.44073,2.45691,14.19177l1.05262,7.12439.96057,7.13867c1.19043,9.5318,2.27514,19.08008,2.77563,28.71063Z"/>
      <path class="f1c93cc3-a699-40fd-a615-ab28cb3e3cfa" d="M1058.66526,512.8275s-16.194-120.69907-120.9136-149.0738S1044.847,490.685,1053.8767,517.32411Z"/>
      <path class="ffa2bad6-9d24-4429-af2a-bfd11dceec98" d="M1190.19921,542.08856c1.40332,2.73646,34.79307-41.86041,39.14221-84.26446s40.77312-21.74567,46.20954-66.32429-5.43642-53.27689,3.26185-70.67342-35.88035-82.63354-35.88035-82.63354,5.98006,32.07486-9.78555,50.55868,11.96012,60.34423-5.43642,70.67342-46.75318,14.67832-45.12226,77.74076S1157.58071,478.48248,1190.19921,542.08856Z"/>
      <path class="f1c93cc3-a699-40fd-a615-ab28cb3e3cfa" d="M1114.55586,440.80861s.32909-14.92426,17.08993-31.4269,30.48519-26.41839,21.54468-42.161-23.45847,13.99838-26.87658,1.07082-.14177-36.67843,17.65887-63.51514-10.21448-57.65416-28.0398-41.373-6.9495,57.4143-19.68025,49.21235,8.60761-78.72546-11.73146-95.72932-48.994-34.07227-57.59277-11.42893,32.56543,48.97818,12.8972,55.436-38.546-20.23718-49.76294-3.69151-.19049,38.27514,33.89761,55.91883,52.009,30.25735,40.1459,33.897-30.85162-22.52309-43.90829-2.47324,1.13853,31.88826,11.47261,32.928,50.82742,3.913,49.69839,12.00738-10.97391,12.70923-18.20378,10.09422-17.71773,2.42135-11.97067,17.4994,57.04218,27.41768,57.04218,27.41768Z"/>
      <path class="b788b5a6-0973-41d8-ac0b-49099e4cebdd" d="M1152.1443,569.81428s63.06243-78.28441,16.30925-144.60869S1116.26394,512.18826,1152.1443,569.81428Z"/>
      <path class="e9d2d7c1-2109-4833-b43f-046cbd5899a4" d="M1091.25643,492.61716c3.26185-5.43642,32.6185-97.85551-25.00752-132.64858s-71.76071-6.5237-71.76071,9.78555S1091.25643,492.61716,1091.25643,492.61716Z"/>
      <path class="b7434a88-775b-40ba-89be-9e7073e991e5" d="M1054.26448,276.0524a164.38739,164.38739,0,0,1,10.63086,19.03772c.77991,1.64038,1.60034,3.26428,2.34766,4.9196l2.21667,4.978,1.10071,2.49273,1.02307,2.52462c.69556,1.67746,1.32471,3.38224,1.98145,5.075.65441,1.694,1.22778,3.41934,1.81372,5.13865l1.75512,5.15714c.58533,1.71821,1.1731,3.43475,1.70911,5.16984l1.73645,5.15613,3.65442,10.24284c1.20007,3.42034,2.60632,6.77272,3.806,10.19613,1.23486,3.41142,2.50891,6.8128,3.71045,10.239,1.24133,3.414,2.25964,6.89755,3.3667,10.35455,1.06347,3.46973,2.22668,6.91226,3.20874,10.40644,1.01855,3.484,1.95874,6.99044,2.92053,10.49047q1.40717,5.26,2.59473,10.57505,1.2182,5.3069,2.3706,10.6268,2.12568,10.681,3.796,21.44519l-.31433.06814c-2.14917-6.9447-3.99975-13.94491-5.944-20.91769q-1.506-5.21758-2.92908-10.45166l-1.4093-5.23746c-.45581-1.7493-.98791-3.47809-1.478-5.21792-3.718-13.97635-7.68177-27.87467-11.566-41.83086-.47767-1.74733-1.01392-3.47553-1.54212-5.20691q-.77782-2.602-1.62329-5.18227c-.54309-1.72717-1.13709-3.43693-1.70825-5.15457-.60437-1.70591-1.26453-3.3919-1.89405-5.08865-1.30566-3.3765-2.64318-6.74094-4.13757-10.04173-1.46911-3.31-2.86853-6.64576-4.37866-9.93273-5.697-13.28892-11.15894-26.64093-17.09729-39.87137Z"/>
      <path class="b7434a88-775b-40ba-89be-9e7073e991e5" d="M948.77333,385.64406a174.61609,174.61609,0,0,1,17.11426,12.56564q4.1043,3.365,8.05682,6.90833c1.33325,1.16315,2.6294,2.36719,3.912,3.58551,1.30261,1.1969,2.54645,2.45639,3.79584,3.709,4.978,5.0347,9.59613,10.41385,14.41235,15.57593,4.791,5.18866,9.7196,10.24274,14.603,15.366,4.907,5.10178,9.59723,10.42072,14.01391,15.96509,4.44178,5.52423,8.68732,11.21972,12.61914,17.13318a198.845,198.845,0,0,1,10.65339,18.44217,149.31071,149.31071,0,0,1,8.13244,19.65005l-.32763.13556c-3.27588-6.26883-6.675-12.4104-10.25251-18.442-3.66412-5.98218-7.39361-11.90613-11.35162-17.68747-1.98041-2.88876-3.93414-5.79571-5.96765-8.6513-1.01142-1.43137-1.9964-2.88236-3.03015-4.299l-3.11438-4.2421c-1.02887-1.42172-2.13221-2.78735-3.18024-4.19617-1.049-1.4085-2.126-2.79519-3.1994-4.18661l-3.20557-4.18961-3.25439-4.1578a192.3242,192.3242,0,0,0-13.96686-15.84308c-4.96491-5.00138-10.37195-9.54938-15.61633-14.23328q-3.92606-3.52364-7.78766-7.11111l-7.74756-7.15775c-5.166-4.77691-10.36572-9.51886-15.525-14.35632Z"/>
      <path class="b7434a88-775b-40ba-89be-9e7073e991e5" d="M1023.66847,353.86536a48.86229,48.86229,0,0,1,8.05255,4.28886,78.39361,78.39361,0,0,1,7.39081,5.36943c1.18183.96145,2.33557,1.95733,3.47949,2.964,1.108,1.04452,2.25208,2.05414,3.31989,3.14035,1.095,1.05963,2.15857,2.15066,3.17627,3.28354,1.05395,1.1001,2.02966,2.27008,2.99731,3.44458A167.34933,167.34933,0,0,1,1062.6053,391.212c3.32117,5.059,6.52246,10.19388,9.55212,15.44757,1.54346,2.61271,2.97022,5.29084,4.35682,7.99338.7163,1.34058,1.305,2.74008,1.96093,4.10983.63489,1.37906,1.29029,2.75083,1.855,4.16,1.17066,2.80166,2.36133,5.59805,3.39441,8.45468,1.11414,2.82834,2.03211,5.72446,2.95349,8.61792a180.40576,180.40576,0,0,1,7.17139,35.60544l-.26233.044c-2.83606-11.75683-5.87024-23.39126-9.61316-34.79425l-1.382-4.28131c-.463-1.42633-1.00354-2.82507-1.47351-4.24933-.93554-2.85153-2.02819-5.64377-3.10156-8.44571-2.2478-5.55874-4.53638-11.11483-7.14722-16.5354-.64648-1.35827-1.29772-2.71539-2.01342-4.03848-.69825-1.33261-1.38709-2.673-2.142-3.97491s-1.54834-2.58133-2.32471-3.87116c-.78613-1.2839-1.66968-2.50507-2.49927-3.76025a132.54423,132.54423,0,0,0-11.47448-13.884c-8.05854-8.82721-16.70471-17.20036-26.8598-23.70356Z"/>
      <path class="b7434a88-775b-40ba-89be-9e7073e991e5" d="M1150.11958,420.48845a102.37506,102.37506,0,0,1,6.05994,16.97376c.72864,2.91543,1.51831,5.82361,2.05493,8.78262.60816,2.94519,1.15588,5.90375,1.48108,8.89465l.50952,4.47931c.172,1.49188.21094,2.99921.329,4.49533l.29712,4.49192c.04419.74847.13355,1.49261.16711,2.24154l.09766,2.24649c.14563,2.993.38879,5.97895.58057,8.96888.097,2.99359.30749,5.98623.45788,8.98516.03968.74952.10218,1.49945.12293,2.24942l.02685,2.25058.03406,4.50534-.01623,4.50861c.01464,1.50464-.15992,2.99951-.23072,4.50037l-.57312,9.00189c-.09118,1.50159-.3424,2.98651-.52112,4.479l-.59057,4.47183c-.70447,5.97693-2.12329,11.83707-3.3971,17.703l-.49255,2.19665c-.18494.72745-.41333,1.44507-.61792,2.1677l-1.28015,4.32052c-.87293,2.87311-1.75891,5.73856-2.69653,8.582l-.25611-.07156c.50488-2.96127,1.06153-5.9006,1.63123-8.83224l.88366-4.38663c.14478-.731.3136-1.45661.43872-2.19141l.33936-2.21151c.84522-5.90516,2.07019-11.732,2.63757-17.662,1.82105-11.76865,2.47437-23.65741,3.10193-35.57465.02967-2.9812.11926-5.96866.09558-8.95517-.07666-2.98379-.31775-5.96234-.53784-8.9389-.17859-2.98129-.74365-5.92606-1.17285-8.87659-.403-2.95563-1.02136-5.87668-1.55493-8.80539-1.00977-5.8663-2.139-11.70248-3.35156-17.53024-1.28064-5.81061-2.65406-11.6077-4.30347-17.35947Z"/>
      <path class="b7434a88-775b-40ba-89be-9e7073e991e5" d="M1191.81416,530.14983c1.17163-22.18628,2.95569-44.506,6.75244-66.50791a256.81255,256.81255,0,0,1,7.87879-32.55816,76.93166,76.93166,0,0,1,2.9978-7.847,22.28526,22.28526,0,0,1,4.63062-7.10483,15.01317,15.01317,0,0,1,1.71765-1.294l1.70935-1.18866q1.6919-1.21344,3.34021-2.48456,3.303-2.53176,6.45141-5.24719c8.31714-7.28763,15.895-15.52786,21.32581-25.0427a64.40181,64.40181,0,0,0,3.53711-7.36608,51.82787,51.82787,0,0,0,2.38293-7.76847,47.69644,47.69644,0,0,0,1.0481-8.02073,48.19382,48.19382,0,0,0-.38538-8.08637c-.665-5.56662-1.20581-11.14154-1.49353-16.7279-.27075-5.58585-.45813-11.17162-.47546-16.75612-.00513-11.16811.41223-22.32938,1.49121-33.43427l.26538.0177q-.30376,16.70533.32227,33.37337c.3977,11.10406,1.24182,22.18492,2.70154,33.15375a46.70294,46.70294,0,0,1-.77161,17.09443,54.54521,54.54521,0,0,1-2.6427,8.14606,66.94449,66.94449,0,0,1-3.81336,7.62448c-5.78112,9.80051-13.82885,17.9393-22.56079,24.91174q-3.2796,2.62506-6.7041,5.04944c-1.13879.81092-2.29223,1.60038-3.45264,2.3783l-1.73645,1.17251a14.03243,14.03243,0,0,0-1.63269,1.1915,21.51411,21.51411,0,0,0-4.50964,6.75244,63.41461,63.41461,0,0,0-2.922,7.7663,144.80754,144.80754,0,0,0-3.84533,16.1976c-1.0326,5.45859-1.87683,10.95276-2.66993,16.45246q-2.43255,16.49134-4.49548,33.0556l-2.03894,16.57339-1.01428,8.29322c-.36255,2.77441-.62952,5.50964-1.13611,8.31478Z"/>
    </g>
    <g>
      <polygon class="e8a666b6-d9bb-4588-b55d-4c6ee4307829" points="469.978 249.341 464.192 253.255 465.005 262.447 469.978 259.383 469.978 249.341"/>
      <polygon class="e8a666b6-d9bb-4588-b55d-4c6ee4307829" points="454.761 268.574 454.761 257.085 435.876 265.568 436.083 276.491 454.761 268.574"/>
      <path class="e8a666b6-d9bb-4588-b55d-4c6ee4307829" d="M464.19208,255.39564s-4.86134-1.885-9.431,4.24266"/>
      <line class="e8a666b6-d9bb-4588-b55d-4c6ee4307829" x1="435.87569" y1="268.57447" x2="380.22523" y2="264.34966"/>
    </g>
  </g>
</svg>
